<svg version="1.1" id="Layer_1" xmlns="http://www.w3.org/2000/svg" xmlns:xlink="http://www.w3.org/1999/xlink" x="0px" y="0px"
	 width="100%" viewBox="0 0 500 147" enable-background="new 0 0 500 147" xml:space="preserve">
<path fill="#233736" opacity="1.000000" stroke="none" 
	d="
M329.000000,148.000000 
	C219.333374,148.000000 110.166748,148.000000 1.000088,148.000000 
	C1.000059,99.000053 1.000059,50.000114 1.000029,1.000127 
	C167.666550,1.000085 334.333099,1.000085 500.999756,1.000042 
	C500.999817,49.999866 500.999817,98.999733 500.999908,147.999802 
	C443.833344,148.000000 386.666656,148.000000 329.000000,148.000000 
M28.879738,97.336082 
	C28.504650,97.501541 28.129562,97.666992 27.754475,97.832443 
	C28.075188,98.316818 28.395901,98.801193 28.886959,99.727455 
	C29.097462,99.994423 29.372675,100.130936 30.099901,100.697273 
	C31.569279,100.961510 33.038654,101.225746 34.508034,101.489975 
	C34.560776,101.129845 34.613522,100.769707 34.666267,100.409576 
	C33.436062,100.003181 32.205860,99.596794 30.475605,98.759842 
	C30.118603,98.512497 29.761600,98.265144 28.879738,97.336082 
M130.341263,58.817150 
	C130.394806,58.574265 130.448349,58.331383 130.501907,58.088505 
	C130.307571,58.372478 130.113235,58.656456 129.770737,59.058533 
	C129.770737,59.058533 129.794510,59.322750 129.794510,59.322750 
	C129.794510,59.322750 130.051666,59.068546 130.341263,58.817150 
M39.367310,90.114777 
	C39.032040,90.751900 38.696774,91.389023 38.361504,92.026154 
	C38.656052,92.152725 38.950603,92.279297 39.245152,92.405869 
	C39.512920,91.618401 39.780689,90.830925 40.710686,89.801346 
	C41.196873,89.312134 41.683060,88.822929 42.957268,88.145126 
	C44.173428,89.331879 45.389587,90.518639 46.605747,91.705383 
	C44.635635,92.773216 42.665520,93.841049 39.393898,95.614319 
	C39.393898,104.906349 39.393898,115.557129 39.393898,125.988914 
	C34.538052,126.609802 30.657034,127.106041 26.244896,127.670189 
	C26.288980,117.166847 25.801296,106.791031 28.103037,96.613892 
	C27.368628,94.067352 26.634218,91.520813 26.131634,88.695625 
	C26.026474,87.812424 25.921314,86.929214 25.836885,86.220123 
	C24.631008,87.000732 23.643608,87.639915 22.735468,88.019226 
	C22.735468,88.019226 22.897888,88.173096 22.897888,88.173096 
	C22.897888,88.173096 22.675503,88.093155 23.166397,87.116547 
	C23.811089,87.744957 24.455780,88.373367 24.871138,89.709412 
	C24.238668,91.786194 23.606197,93.862984 22.442535,96.377312 
	C21.375586,97.501862 20.308634,98.626419 19.241684,99.750977 
	C19.404261,100.012047 19.566835,100.273117 19.729410,100.534187 
	C21.155857,99.626808 22.582304,98.719429 24.645205,98.411850 
	C24.210724,100.287453 23.776245,102.163048 22.851194,104.562317 
	C20.596691,106.252686 18.342190,107.943047 16.087687,109.633408 
	C16.321085,110.053436 16.554483,110.473473 16.787882,110.893501 
	C19.372509,109.538864 21.957138,108.184227 24.444117,107.782799 
	C24.435444,113.586082 24.601854,119.398232 24.308849,125.187119 
	C24.223606,126.871254 22.825502,128.488937 21.375254,130.284500 
	C16.682020,133.535782 13.409068,137.557343 13.466021,143.085434 
	C16.683386,139.120743 19.937160,135.111206 23.868462,130.741196 
	C37.216911,125.988060 50.939514,129.302719 64.870140,128.054245 
	C64.695663,130.437180 64.581863,131.991501 64.444710,133.864655 
	C61.530457,133.864655 59.082829,133.864655 56.784241,133.864655 
	C56.784241,137.368225 56.784241,140.513916 56.784241,143.659592 
	C57.124794,143.667923 57.465351,143.676254 57.805904,143.684586 
	C57.952198,141.115005 58.098492,138.545425 58.249550,135.892075 
	C80.572441,135.892075 102.595566,135.892075 125.143364,135.892075 
	C125.143364,138.695969 125.143364,141.197113 125.143364,143.698257 
	C125.521446,143.692978 125.899521,143.687714 126.277603,143.682449 
	C126.277603,140.477356 126.277603,137.272278 126.277603,133.946106 
	C123.552452,133.824112 120.937523,133.707031 118.007767,133.575882 
	C118.112274,131.653046 118.197517,130.084595 118.266998,128.806183 
	C130.443268,128.806183 142.219604,128.806183 154.754547,129.089279 
	C157.198608,129.555954 158.372269,130.778015 158.162827,133.512634 
	C157.901535,136.924545 158.100067,140.371658 158.100067,143.803574 
	C158.772125,143.802292 159.444168,143.801025 160.116226,143.799744 
	C160.116226,139.868515 160.116226,135.937286 160.116226,131.317291 
	C161.484024,132.291534 161.993393,132.675003 162.524460,133.025604 
	C162.902679,133.275299 163.310089,133.480743 163.704483,133.705917 
	C155.879791,125.393456 161.924255,115.778809 159.908478,107.405991 
	C162.864929,108.713501 165.264099,109.774559 167.663269,110.835609 
	C167.957901,110.332298 168.252533,109.828987 168.547165,109.325676 
	C162.058868,108.710457 161.532761,103.035828 159.360886,98.319000 
	C162.105515,99.741295 164.850143,101.163582 167.811020,102.697937 
	C164.532852,98.396408 161.738632,94.729897 158.381943,90.612671 
	C159.962021,87.735512 161.514572,84.857758 158.239807,80.694611 
	C158.045212,87.334030 155.018051,90.915077 150.161606,93.442322 
	C152.589996,93.045273 154.524216,91.910355 156.565460,91.021049 
	C157.257217,90.719673 158.219345,91.038902 158.251358,91.280289 
	C156.192734,94.789848 154.134109,98.299408 151.952652,102.018402 
	C153.655945,101.164078 155.763840,100.106812 158.060822,99.771736 
	C157.474548,101.613800 156.888290,103.455864 155.815430,105.783653 
	C153.870575,107.230431 151.925735,108.677208 149.980881,110.123985 
	C150.306854,110.595657 150.632812,111.067322 150.958771,111.538986 
	C152.983444,110.067001 155.008102,108.595016 157.843887,107.427307 
	C157.843887,114.150101 157.843887,120.872887 157.843887,127.852402 
	C156.501465,127.622078 155.247742,127.406967 153.178345,126.949760 
	C150.074738,126.671967 146.971130,126.394173 143.252487,126.061333 
	C143.466171,122.329544 143.784912,118.822166 143.778397,115.315392 
	C143.776917,114.516998 142.650177,113.720695 142.010529,112.989235 
	C142.010529,112.989235 142.076492,112.958786 142.771591,112.508041 
	C142.771591,96.071663 142.771591,79.635277 142.771591,63.236259 
	C144.600006,62.950439 146.055527,62.722908 147.511047,62.495380 
	C147.568634,62.061687 147.626221,61.627995 147.683807,61.194302 
	C145.469879,60.488140 143.255951,59.781979 141.012512,58.511726 
	C140.739426,58.011314 140.466324,57.510899 140.193237,57.010490 
	C139.976624,57.205093 139.759995,57.399696 139.543365,57.594296 
	C140.054260,58.077248 140.565155,58.560204 141.119415,59.649277 
	C140.935013,60.085865 140.750168,60.902695 140.566269,60.902477 
	C137.389465,60.898727 134.211090,60.835705 131.036423,60.703857 
	C123.364334,60.385227 115.694000,60.024200 107.846291,59.073078 
	C106.921593,58.725147 105.996902,58.377220 105.028526,57.967926 
	C105.028526,57.967926 104.964012,57.929047 104.947830,57.310535 
	C104.641243,56.329002 104.334648,55.347469 104.948280,54.204155 
	C110.954308,54.101555 116.960327,53.998951 123.089859,54.443817 
	C123.610229,54.561268 124.130600,54.678719 124.650970,54.796169 
	C124.125008,54.195522 123.599045,53.594875 122.721809,52.541275 
	C122.208717,52.300808 121.695633,52.060337 120.829567,51.239841 
	C118.533043,49.862038 116.236511,48.484234 113.507072,46.991196 
	C113.507072,46.991196 113.062843,46.933281 112.798912,46.305370 
	C110.203873,44.770802 107.608841,43.236237 104.817581,41.110020 
	C103.920624,40.693645 103.023659,40.277267 101.925400,39.269180 
	C101.048508,38.841076 100.171616,38.412975 98.966064,37.356960 
	C96.981979,36.145271 94.997902,34.933582 92.927132,33.288036 
	C91.944305,33.392323 90.961472,33.496605 89.317535,33.864941 
	C87.546928,34.913689 85.776321,35.962437 83.340057,37.167702 
	C80.738029,39.006058 78.135994,40.844414 74.931763,42.920910 
	C73.316193,43.990330 71.700623,45.059753 69.436852,46.298164 
	C67.268387,47.848080 65.099930,49.397999 62.405041,51.312824 
	C62.509834,51.498848 62.614624,51.684875 62.635853,51.737099 
	C62.635853,51.737099 62.484596,51.781887 61.810616,51.701645 
	C60.168774,52.810104 58.526932,53.918564 56.203392,55.119682 
	C54.802246,56.413166 53.401100,57.706646 51.218266,58.975292 
	C47.877979,59.855228 44.537693,60.735168 40.387455,61.828472 
	C41.277973,59.700954 41.632713,58.853458 42.708508,57.993759 
	C44.319107,57.124554 45.929710,56.255348 47.540310,55.386143 
	C47.077328,54.811188 46.614349,54.236233 46.151367,53.661278 
	C44.765568,55.111679 43.379765,56.562077 41.303585,57.994820 
	C39.466740,59.211349 37.629894,60.427879 35.339291,61.799328 
	C35.142048,62.041904 34.944805,62.284481 34.747566,62.527058 
	C35.179241,62.600216 35.610916,62.673374 36.791367,62.864937 
	C37.846317,63.240437 38.901268,63.615932 39.407909,64.346329 
	C39.610775,67.058815 39.813637,69.771309 40.016502,72.483795 
	C40.378693,72.454300 40.740883,72.424805 41.103073,72.395302 
	C41.458649,69.627609 41.814220,66.859909 42.908344,64.023567 
	C46.308792,64.335587 47.769226,65.513756 45.633556,69.036041 
	C45.037842,70.018532 45.501553,71.689919 45.598225,73.036728 
	C45.860207,76.686554 46.372890,80.334587 46.318832,83.976395 
	C46.308792,84.652840 44.098915,85.263573 42.941631,85.966103 
	C41.943985,86.571716 40.999504,87.264908 40.010525,88.597252 
	C39.990089,89.048286 39.969654,89.499321 39.367310,90.114777 
M65.758438,42.066532 
	C66.270630,41.759926 66.782829,41.453323 67.295021,41.146721 
	C67.005501,40.854210 66.715981,40.561699 66.426460,40.269188 
	C65.901764,40.794411 65.377060,41.319630 64.389397,42.017742 
	C64.245483,42.472340 64.101578,42.926937 63.957657,43.381527 
	C64.357162,42.970325 64.756668,42.559124 65.758438,42.066532 
M105.075722,33.706585 
	C105.746811,34.033905 106.417900,34.361225 107.088997,34.688549 
	C107.219238,34.402729 107.349487,34.116913 107.479736,33.831097 
	C106.702560,33.495998 105.925377,33.160896 104.931564,32.260574 
	C104.243561,31.957346 103.555550,31.654118 102.867546,31.350889 
	C102.747719,31.639919 102.627899,31.928947 102.508080,32.217976 
	C103.289795,32.525993 104.071510,32.834011 105.075722,33.706585 
M92.120934,24.725460 
	C93.030869,25.209673 93.940804,25.693886 95.017937,26.787786 
	C95.723221,27.306068 96.428513,27.824350 97.133797,28.342630 
	C97.305893,28.090212 97.638763,27.624535 97.627167,27.615793 
	C96.818420,27.006096 95.982124,26.432940 94.898735,25.255192 
	C93.976044,24.787731 93.053345,24.320272 91.959877,23.370863 
	C91.162811,23.459425 90.365738,23.547987 89.568672,23.636549 
	C89.652016,24.087292 89.735359,24.538034 89.818695,24.988775 
	C90.504677,24.700964 91.190651,24.413153 92.120934,24.725460 
M134.921234,53.298119 
	C134.243423,52.982883 133.565628,52.667648 132.887817,52.352417 
	C132.762970,52.638012 132.638138,52.923607 132.513290,53.209202 
	C133.291611,53.533504 134.069916,53.857807 135.014145,54.792751 
	C135.720673,55.310799 136.427200,55.828846 137.133728,56.346901 
	C137.306076,56.094337 137.639633,55.628601 137.627777,55.619625 
	C136.819382,55.008259 135.983246,54.433575 134.921234,53.298119 
M40.697399,81.889702 
	C41.534481,80.847061 42.371563,79.804428 43.208645,78.761787 
	C42.826229,78.496094 42.443813,78.230408 42.061398,77.964714 
	C41.357891,79.294769 40.654381,80.624825 39.375225,82.124863 
	C39.037876,82.756371 38.700531,83.387886 38.363186,84.019402 
	C38.655823,84.146881 38.948463,84.274368 39.241104,84.401848 
	C39.511024,83.617737 39.780945,82.833633 40.697399,81.889702 
M382.545288,136.051514 
	C382.545288,136.051514 382.570221,136.046646 383.195099,136.491226 
	C383.904785,136.066971 385.189728,135.688400 385.227661,135.210785 
	C385.423920,132.739777 385.770538,130.117004 385.144958,127.794952 
	C384.620880,125.849686 383.135254,123.206985 381.530121,122.737526 
	C379.223083,122.062798 376.421112,123.080467 373.830383,123.375740 
	C373.910492,123.865166 373.990570,124.354599 374.070679,124.844032 
	C382.172638,123.752068 382.641144,123.958733 382.422333,128.487228 
	C380.282013,128.707306 378.147736,128.926773 375.297607,129.224991 
	C374.645782,131.027344 373.134216,133.109467 373.602173,134.547424 
	C374.008850,135.797180 376.580200,136.688965 378.334442,137.038284 
	C379.615417,137.293350 381.122986,136.410263 382.545288,136.051514 
M322.252716,123.817398 
	C321.999603,121.313469 321.746490,118.809532 321.493347,116.305603 
	C321.143982,116.357010 320.794586,116.408409 320.445221,116.459808 
	C320.445221,123.278801 320.445221,130.097794 320.445221,137.778122 
	C321.681549,136.400192 322.278015,135.735443 323.238159,135.751816 
	C327.027618,138.055115 330.635834,137.904510 333.376495,134.274841 
	C335.886505,130.950653 335.718536,127.200974 332.687500,124.336868 
	C329.782806,121.592186 326.309601,120.864929 322.252716,123.817398 
M39.323212,35.657173 
	C48.737587,36.516277 53.508804,33.080753 55.516281,24.106625 
	C55.516281,24.106625 55.604191,24.094049 56.356678,24.505299 
	C58.433975,28.551287 57.305054,32.351341 54.853210,36.197166 
	C53.080463,37.442059 51.307720,38.686947 48.547234,40.625469 
	C53.401997,40.935081 55.933636,39.830860 57.562847,35.764633 
	C60.831486,28.364147 59.507423,22.883108 53.725788,18.798206 
	C53.249474,21.772589 53.322239,25.143642 52.129128,27.982718 
	C49.540611,34.142265 43.838150,34.308933 37.726448,33.720631 
	C36.440514,33.272800 35.154579,32.824974 33.868645,32.377144 
	C33.679935,33.000332 33.491226,33.623520 33.302517,34.246712 
	C35.038891,34.766273 36.775269,35.285835 39.323212,35.657173 
M121.012505,44.511703 
	C120.739426,44.011299 120.466339,43.510891 120.193253,43.010487 
	C119.976624,43.205086 119.759995,43.399685 119.543365,43.594284 
	C120.054253,44.077236 120.565140,44.560188 121.207161,45.726006 
	C123.225624,46.904732 125.244087,48.083458 127.129219,49.184326 
	C127.129219,41.639442 127.129219,34.569866 127.129219,27.361355 
	C125.183937,27.057852 123.767914,26.836926 122.293930,26.606955 
	C122.293930,25.106087 122.293930,23.779987 122.838348,21.877897 
	C124.615410,21.287949 126.375916,20.256672 128.172577,20.189308 
	C133.981628,19.971506 139.804031,20.126120 145.621155,20.103107 
	C152.231064,20.076958 154.321747,16.557764 151.383942,9.591774 
	C151.080399,10.715375 150.642471,11.457551 150.737350,12.123859 
	C151.518234,17.608130 148.528122,18.559252 143.919159,18.345325 
	C138.280350,18.083597 132.604706,18.048203 126.977325,18.413252 
	C124.997017,18.541716 123.112152,20.141491 120.909805,21.882145 
	C120.782707,23.470875 120.655602,25.059605 120.527100,26.665863 
	C118.849861,26.890196 117.478172,27.073662 116.541763,27.198908 
	C115.964523,31.396690 115.453712,35.111343 114.531586,38.465599 
	C113.891060,38.605732 113.250542,38.745865 112.610008,38.885998 
	C113.015968,39.246304 113.421928,39.606606 114.145279,40.692574 
	C115.277740,41.174198 116.410202,41.655819 118.234642,42.431732 
	C118.234642,37.464111 118.234642,33.239525 118.234642,29.131382 
	C120.676491,29.131382 122.614685,29.131382 124.742943,29.131382 
	C124.742943,34.566975 124.742943,39.787243 124.742943,45.075787 
	C123.363121,45.075787 122.202568,45.075787 121.012505,44.511703 
M200.963531,77.500107 
	C199.614532,77.986511 198.265533,78.472916 196.916534,78.959320 
	C197.018829,79.149979 197.121124,79.340645 197.223419,79.531303 
	C204.468079,79.531303 211.712723,79.531303 218.957367,79.531303 
	C215.621185,77.823860 211.852219,77.224754 212.014038,72.263779 
	C212.197922,66.626366 212.056549,60.978355 212.056549,53.622227 
	C214.969635,55.387062 217.417145,56.179287 218.823502,57.848640 
	C223.431702,63.318588 227.663635,69.105667 232.035873,74.774200 
	C236.295197,80.296333 242.173813,81.757767 248.998444,78.983574 
	C243.541611,76.430748 231.599945,63.357250 226.150360,53.875648 
	C227.446503,53.469448 228.693405,53.110073 229.919250,52.689323 
	C237.178741,50.197639 240.245728,46.278793 240.102798,39.706985 
	C239.959808,33.132805 236.768021,28.251944 229.471710,27.234238 
	C218.755920,25.739576 207.837494,25.697779 197.005402,25.036993 
	C196.652344,25.660679 196.299286,26.284363 195.946228,26.908049 
	C204.835953,27.343643 203.543365,33.361702 203.572525,38.564613 
	C203.629456,48.724255 203.714142,58.887157 203.499039,69.042603 
	C203.442307,71.721588 202.332321,74.378250 200.963531,77.500107 
M393.814240,57.627583 
	C393.814148,61.790329 393.795990,65.953178 393.819031,70.115791 
	C393.842041,74.275826 394.410583,78.719154 388.522766,79.621979 
	C394.223999,79.621979 399.925262,79.621979 406.545074,79.621979 
	C400.875122,77.200752 400.867157,77.200768 400.857086,71.604912 
	C400.846863,65.943687 400.826233,60.282246 400.863373,54.621246 
	C400.894287,49.911064 404.290588,46.980659 409.663666,46.737923 
	C414.638702,46.513172 415.436554,50.043919 415.649780,53.624557 
	C415.956116,58.769054 415.826996,63.942345 415.800446,69.102913 
	C415.778351,73.392410 416.881897,78.270134 410.803436,79.589691 
	C416.566345,79.589691 422.329285,79.589691 428.092194,79.589691 
	C423.665802,78.477074 422.687195,75.591591 422.820557,71.600098 
	C423.015045,65.778877 422.809174,59.945469 422.887970,54.118797 
	C422.946167,49.815964 426.311249,46.975563 431.130157,46.682293 
	C435.742828,46.401569 437.472229,49.030537 437.634430,53.021366 
	C437.850647,58.341114 437.827820,63.672798 437.811798,68.999069 
	C437.798950,73.267700 439.025452,78.155182 432.357819,79.585274 
	C438.145508,80.004654 443.289368,80.011528 448.433075,79.991470 
	C448.839844,79.989883 449.245911,79.801376 449.874786,79.644096 
	C444.893707,77.096260 444.981201,77.094200 444.845032,71.299835 
	C444.681061,64.325127 444.862762,57.286098 443.947296,50.400902 
	C443.012268,43.368431 437.820526,40.554462 431.107117,42.956699 
	C427.788483,44.144192 424.817902,46.304367 421.692535,48.022964 
	C416.879761,40.732262 415.666687,40.685371 400.798279,47.299274 
	C400.544861,45.675079 400.300842,44.111240 399.993805,42.143452 
	C395.853882,43.546238 392.082947,44.823982 388.312012,46.101730 
	C393.263855,46.092495 393.809814,49.141113 393.808197,52.677933 
	C393.807587,54.009979 393.812073,55.342030 393.814240,57.627583 
M314.267242,62.510643 
	C313.153931,68.319962 317.469818,75.549522 309.322571,79.697876 
	C315.081421,79.697876 320.372681,79.697876 324.316071,79.697876 
	C323.327087,76.860336 321.686737,74.044609 321.460907,71.119667 
	C320.962616,64.666405 321.538483,58.128593 321.011871,51.679520 
	C320.311493,43.103271 312.702972,39.569130 305.431702,44.128918 
	C303.655396,45.242840 302.024567,46.588757 300.190399,47.927586 
	C299.903015,45.860691 299.664612,44.145988 299.385529,42.138645 
	C295.298645,43.495609 291.630554,44.713528 287.000641,46.250805 
	C292.803589,47.734650 292.953217,47.877647 292.998810,52.857052 
	C293.047577,58.180462 293.061523,63.505280 292.995544,68.828308 
	C292.943085,73.061424 294.271088,77.913666 286.894806,79.511528 
	C293.938263,79.511528 299.350616,79.511528 303.814880,79.511528 
	C302.570282,77.761856 300.314575,76.032516 300.196655,74.167969 
	C299.756470,67.208145 299.910980,60.201683 300.063354,53.217541 
	C300.131134,50.111526 304.691223,46.876789 308.426178,46.921696 
	C312.459167,46.970188 313.952026,49.472126 314.139648,53.045456 
	C314.287781,55.866905 314.232330,58.699039 314.267242,62.510643 
M354.884735,51.471237 
	C356.380219,52.601521 357.875671,53.731804 359.371155,54.862095 
	C360.241180,53.277458 361.907043,51.649216 361.823059,50.116840 
	C361.619629,46.403831 363.391846,44.781353 366.573090,44.390663 
	C369.837708,43.989731 372.733093,44.977631 373.349091,48.670116 
	C373.915833,52.067120 375.379303,55.676514 370.157837,57.580326 
	C365.389069,59.319084 360.757416,61.817142 356.601135,64.741959 
	C352.655487,67.518524 352.132507,72.997078 354.504761,76.879395 
	C356.778198,80.599991 361.273926,81.962898 365.916443,79.961960 
	C368.619873,78.796776 371.082520,77.072945 372.487244,76.268433 
	C375.028381,78.029236 377.054413,80.518211 379.203430,80.629433 
	C381.542542,80.750481 383.995911,78.664017 386.399475,77.539986 
	C386.175629,77.105957 385.951813,76.671928 385.727966,76.237900 
	C380.739868,75.649780 380.707794,75.650314 380.622894,70.535217 
	C380.526245,64.712479 380.734375,58.873756 380.373505,53.069122 
	C379.928955,45.918095 376.938629,42.875301 370.471039,42.177704 
	C362.752594,41.345184 357.089020,44.442493 354.884735,51.471237 
M456.524170,49.121204 
	C451.853790,56.609703 451.448090,64.512794 454.857361,72.468559 
	C457.733948,79.181244 464.501740,82.163651 471.809906,80.522598 
	C478.734711,78.967628 484.371490,73.013008 484.544708,66.450508 
	C479.759918,72.924530 474.453735,77.593712 466.274933,73.774567 
	C461.233612,71.420479 458.400024,64.064148 459.672089,57.074390 
	C467.641785,57.074390 475.710205,57.074390 483.815826,57.074390 
	C482.666565,47.741188 478.938690,43.081219 471.878479,42.264912 
	C465.826294,41.565159 460.776550,43.677742 456.524170,49.121204 
M282.110260,51.697426 
	C279.564850,40.945324 264.971436,38.962971 257.517548,47.071716 
	C251.563202,53.549168 250.851868,61.349674 252.961716,69.494850 
	C254.943008,77.143768 260.805206,81.319641 268.378845,80.888741 
	C276.298492,80.438141 282.898193,74.613152 284.142059,65.992935 
	C279.141296,72.748146 273.798096,77.758484 265.762360,73.802437 
	C259.242493,70.592667 258.528809,64.101013 258.107971,57.211193 
	C266.543518,57.211193 274.640411,57.211193 283.226501,57.211193 
	C282.867096,55.306118 282.600739,53.894245 282.110260,51.697426 
M340.164520,69.981133 
	C340.164520,62.045193 340.164520,54.109257 340.164520,46.393238 
	C343.338989,45.851395 345.984528,45.399837 348.630066,44.948280 
	C348.516479,44.367359 348.402893,43.786438 348.289276,43.205517 
	C345.713165,43.074451 343.137024,42.943390 339.913055,42.779369 
	C339.913055,39.422070 339.913055,36.288815 339.913055,32.720707 
	C335.926910,37.235039 332.480682,41.137947 328.690674,45.430153 
	C330.348419,45.736069 331.675720,45.981010 333.110687,46.245811 
	C333.110687,48.620430 333.077728,50.606091 333.116577,52.590343 
	C333.259460,59.887173 333.220245,67.196281 333.670837,74.474686 
	C333.895782,78.108444 336.120575,80.758286 340.090607,80.842979 
	C344.064667,80.927765 347.298004,79.408897 349.419037,75.263184 
	C341.843353,76.976463 341.627350,76.863419 340.164520,69.981133 
M287.060120,135.792969 
	C293.333374,138.361420 297.288300,137.607224 298.987427,133.159775 
	C294.601257,135.260635 289.951263,136.782471 286.847168,132.369354 
	C285.329681,130.211990 284.672974,126.067818 285.711456,123.761749 
	C288.458740,117.661263 294.012207,119.195114 299.922241,121.418602 
	C295.457581,116.249786 289.530273,116.095078 285.348083,120.106781 
	C280.881012,124.391739 281.304993,130.253281 287.060120,135.792969 
M357.293762,133.152161 
	C357.293854,132.819046 357.296692,132.485901 357.293579,132.152817 
	C357.257812,128.336151 357.294647,124.134766 362.495819,124.291054 
	C367.349396,124.436890 366.455231,128.665771 366.657043,131.896179 
	C366.763916,133.606995 367.005005,135.309433 367.185486,137.015671 
	C367.849243,136.933807 368.512970,136.851959 369.176697,136.770111 
	C368.770935,132.816574 369.256195,128.481125 367.761719,124.994217 
	C365.175323,118.959679 359.397675,124.700287 355.628784,122.592857 
	C355.628784,127.492020 355.628784,132.237885 355.628784,136.983734 
	C355.980347,137.006546 356.331909,137.029343 356.683472,137.052155 
	C356.886536,136.041321 357.089600,135.030502 357.293762,133.152161 
M275.561279,33.024574 
	C277.205963,31.898027 279.121918,31.008818 280.393219,29.555635 
	C281.152100,28.688192 280.899902,26.936232 281.102234,25.581882 
	C279.725861,25.416109 277.701721,24.584208 277.077118,25.191551 
	C272.686340,29.461136 268.583862,34.027237 264.389252,38.498573 
	C264.563934,38.776630 264.738586,39.054684 264.913269,39.332741 
	C268.255219,37.354198 271.597168,35.375652 275.561279,33.024574 
M340.174988,136.643127 
	C343.392029,136.643127 346.609039,136.643127 350.070892,136.643127 
	C350.070892,133.890167 350.501007,131.159500 349.939423,128.650848 
	C349.461029,126.513702 348.243347,123.468292 346.631927,122.911720 
	C344.250397,122.089188 341.230164,123.115868 338.481903,123.355133 
	C338.544708,123.835045 338.607544,124.314957 338.670349,124.794868 
	C347.101013,124.039200 347.101013,124.039200 347.413361,128.415146 
	C337.330139,129.325699 335.981567,130.646378 340.174988,136.643127 
M303.695770,135.776184 
	C304.329102,136.096893 304.962433,136.417618 305.359711,136.618805 
	C305.476593,134.594116 304.999176,131.666046 305.797302,131.262833 
	C307.733765,130.284531 310.263641,130.480911 312.946594,130.156586 
	C311.205750,135.447968 311.205750,135.447968 314.597107,136.629379 
	C315.544983,127.667702 314.875854,123.655174 312.283081,124.351303 
	C312.283081,125.616348 312.283081,126.959068 312.283081,128.268372 
	C302.197906,129.562897 302.017883,129.704773 303.695770,135.776184 
M399.529022,124.400787 
	C396.982971,123.820717 394.420898,122.790688 391.898682,122.880417 
	C390.879150,122.916687 388.900482,126.342064 389.145721,126.614204 
	C390.645111,128.277878 392.624481,129.527939 394.512939,130.814484 
	C395.552399,131.522629 396.726807,132.032776 397.840332,132.632172 
	C397.098633,133.717392 396.356964,134.802612 395.615265,135.887817 
	C395.826416,136.163834 396.037567,136.439835 396.248718,136.715851 
	C397.550201,135.701935 398.851685,134.688034 400.153137,133.674133 
	C399.071014,132.408310 398.182037,130.864990 396.859558,129.944489 
	C395.066772,128.696609 392.941772,127.925957 390.695038,126.820602 
	C393.140289,122.856544 396.132996,124.373001 399.529022,124.400787 
M75.568398,33.301876 
	C74.481018,34.110348 73.393639,34.918819 72.306267,35.727295 
	C76.746605,35.756470 76.898880,35.609818 75.568398,33.301876 
M87.270645,26.756207 
	C85.625801,27.259287 83.980949,27.762369 82.336105,28.265450 
	C82.666870,28.864758 82.997635,29.464067 83.328400,30.063375 
	C84.653610,29.164658 85.978828,28.265942 87.270645,26.756207 
M54.957264,47.535301 
	C54.111565,48.362427 53.265862,49.189556 52.420162,50.016682 
	C52.760475,50.373379 53.100788,50.730076 53.441101,51.086773 
	C54.626583,50.324543 55.812065,49.562313 56.997547,48.800083 
	C56.521038,48.301533 56.044533,47.802979 54.957264,47.535301 
M39.629673,40.491913 
	C40.574673,40.856190 41.519669,41.220467 42.464668,41.584743 
	C42.596249,41.045628 42.727825,40.506508 42.859402,39.967392 
	C41.749718,39.967392 40.640034,39.967392 39.629673,40.491913 
M129.977432,49.965195 
	C129.865005,50.367970 129.752579,50.770744 129.640167,51.173523 
	C129.919220,51.175014 130.198288,51.176506 130.477341,51.177998 
	C130.451767,50.764889 130.426193,50.351780 129.977432,49.965195 
M126.844116,57.396782 
	C127.144745,57.099266 127.445374,56.801750 127.746010,56.504234 
	C127.536537,56.316147 127.327072,56.128063 127.117599,55.939976 
	C126.917252,56.326500 126.716904,56.713024 126.844116,57.396782 
M49.383705,53.052673 
	C49.751518,53.008343 50.119328,52.964012 50.487141,52.919682 
	C50.381485,52.638012 50.275829,52.356346 50.170170,52.074673 
	C49.859806,52.262669 49.549442,52.450665 49.383705,53.052673 
M99.844292,30.392824 
	C100.142799,30.097931 100.441307,29.803038 100.739815,29.508148 
	C100.531258,29.321442 100.322701,29.134735 100.114159,28.948027 
	C99.915802,29.331264 99.717445,29.714502 99.844292,30.392824 
M110.607277,37.077175 
	C110.475876,36.699799 110.344475,36.322422 110.213066,35.945045 
	C109.978294,36.135284 109.743515,36.325523 109.508736,36.515766 
	C109.765022,36.798779 110.021301,37.081795 110.607277,37.077175 
M59.747089,44.837021 
	C59.729744,45.199184 59.669304,45.568829 59.729820,45.917473 
	C59.742599,45.991108 60.198296,45.987858 60.449921,46.020035 
	C60.342884,45.653774 60.235851,45.287514 59.747089,44.837021 
M69.450623,38.072914 
	C69.636391,38.420609 69.822159,38.768303 70.007935,39.115997 
	C70.198265,38.975597 70.388596,38.835194 70.578926,38.694790 
	C70.306068,38.409721 70.033211,38.124653 69.450623,38.072914 
M79.450089,31.072655 
	C79.635330,31.419481 79.820580,31.766308 80.005821,32.113136 
	C80.195671,31.973177 80.385513,31.833216 80.575363,31.693253 
	C80.303261,31.408731 80.031166,31.124210 79.450089,31.072655 
M38.855274,74.547546 
	C38.910629,74.841446 38.965984,75.135338 39.021339,75.429237 
	C39.088470,75.137871 39.155605,74.846497 38.855274,74.547546 
z"/>
<path fill="#E1E2E2" opacity="1.000000" stroke="none" 
	d="
M39.956219,63.991432 
	C38.901268,63.615932 37.846317,63.240437 36.385376,62.523235 
	C35.917274,62.002491 35.855164,61.823452 35.793049,61.644409 
	C37.629894,60.427879 39.466740,59.211349 41.652073,57.997131 
	C42.000561,57.999443 41.987450,58.005966 41.987450,58.005966 
	C41.632713,58.853458 41.277973,59.700954 40.387455,61.828472 
	C44.537693,60.735168 47.877979,59.855228 51.566353,59.333805 
	C52.848377,60.121559 53.795124,60.946224 54.714188,60.916443 
	C61.112888,60.709106 67.506905,60.037880 73.900414,60.061287 
	C84.593567,60.100430 95.285240,60.546844 106.291199,60.807121 
	C107.077568,60.421692 107.550262,60.050980 108.022957,59.680267 
	C115.694000,60.024200 123.364334,60.385227 131.036423,60.703857 
	C134.211090,60.835705 137.389465,60.898727 140.566269,60.902477 
	C140.750168,60.902695 140.935013,60.085865 141.065247,59.329395 
	C141.011093,59.009514 141.042023,59.075813 141.042023,59.075813 
	C143.255951,59.781979 145.469879,60.488140 147.683807,61.194302 
	C147.626221,61.627995 147.568634,62.061687 147.511047,62.495380 
	C146.055527,62.722908 144.600006,62.950439 142.771591,63.236259 
	C142.771591,79.635277 142.771591,96.071663 142.062805,112.842468 
	C138.951584,111.720787 136.784500,111.703354 136.132797,114.851311 
	C135.949371,115.737312 137.314285,117.722862 138.238892,117.916679 
	C141.308502,118.560127 142.384537,116.798790 141.844376,113.865776 
	C141.790588,113.573662 141.970123,113.238579 142.041367,112.923431 
	C142.650177,113.720695 143.776917,114.516998 143.778397,115.315392 
	C143.784912,118.822166 143.466171,122.329544 143.252487,126.061333 
	C146.971130,126.394173 150.074738,126.671967 153.585358,127.339859 
	C153.993576,128.088699 153.994766,128.447433 153.995956,128.806183 
	C142.219604,128.806183 130.443268,128.806183 118.266998,128.806183 
	C118.197517,130.084595 118.112274,131.653046 118.007767,133.575882 
	C120.937523,133.707031 123.552452,133.824112 126.277603,133.946106 
	C126.277603,137.272278 126.277603,140.477356 126.277603,143.682449 
	C125.899521,143.687714 125.521446,143.692978 125.143364,143.698257 
	C125.143364,141.197113 125.143364,138.695969 125.143364,135.892075 
	C102.595566,135.892075 80.572441,135.892075 58.249550,135.892075 
	C58.098492,138.545425 57.952198,141.115005 57.805904,143.684586 
	C57.465351,143.676254 57.124794,143.667923 56.784241,143.659592 
	C56.784241,140.513916 56.784241,137.368225 56.784241,133.864655 
	C59.082829,133.864655 61.530457,133.864655 64.444710,133.864655 
	C64.581863,131.991501 64.695663,130.437180 64.870140,128.054245 
	C50.939514,129.302719 37.216911,125.988060 23.313955,130.787796 
	C22.516033,130.601959 22.272619,130.369522 22.029203,130.137085 
	C22.825502,128.488937 24.223606,126.871254 24.308849,125.187119 
	C24.601854,119.398232 24.435444,113.586082 24.632536,107.102097 
	C24.327892,105.627151 23.834829,104.832901 23.341766,104.038651 
	C23.776245,102.163048 24.210724,100.287453 24.295691,98.165817 
	C23.946177,97.919777 23.925285,98.043495 24.187340,98.220413 
	C24.343035,97.950592 24.236677,97.503860 23.909193,96.901855 
	C23.449955,96.477646 23.211842,96.208710 22.973728,95.939766 
	C23.606197,93.862984 24.238668,91.786194 25.185652,89.349075 
	C25.500166,88.988731 25.899809,88.974274 25.899807,88.974274 
	C26.634218,91.520813 27.368628,94.067352 28.103037,96.613892 
	C25.801296,106.791031 26.288980,117.166847 26.244896,127.670189 
	C30.657034,127.106041 34.538052,126.609802 39.393898,125.988914 
	C39.393898,115.557129 39.393898,104.906349 39.393898,95.614319 
	C42.665520,93.841049 44.635635,92.773216 46.605751,91.705383 
	C45.389587,90.518639 44.173428,89.331879 42.312439,88.126068 
	C41.122246,88.044464 40.576881,87.981918 40.031517,87.919373 
	C40.999504,87.264908 41.943985,86.571716 42.941631,85.966103 
	C44.098915,85.263573 46.308792,84.652840 46.318832,83.976395 
	C46.372890,80.334587 45.860207,76.686554 45.598225,73.036728 
	C45.501553,71.689919 45.037842,70.018532 45.633556,69.036041 
	C47.769226,65.513756 46.308792,64.335587 42.170368,64.036263 
	C40.940334,64.029785 40.448277,64.010605 39.956219,63.991432 
M111.818123,81.145111 
	C111.928261,82.590431 112.038399,84.035751 112.142853,85.406502 
	C119.341064,85.406502 126.224091,85.406502 133.212769,85.406502 
	C133.212769,83.260025 133.212769,81.494164 133.212769,79.298996 
	C125.999886,79.298996 119.050705,79.298996 111.172203,79.087616 
	C97.415665,79.158073 83.659119,79.228539 68.980385,79.228371 
	C62.537491,79.228371 56.094597,79.228371 49.643478,79.228371 
	C49.643478,81.713318 49.643478,83.593475 49.643478,85.587608 
	C56.632641,85.587608 63.241276,85.587608 70.090576,85.587608 
	C70.255402,83.783539 70.404404,82.152748 71.392479,80.309929 
	C84.837761,80.309341 98.283051,80.308762 111.818123,81.145111 
M93.079536,125.987572 
	C98.059067,125.990128 103.038605,125.992691 108.897873,126.167503 
	C109.267624,124.707924 109.944954,123.251053 109.957832,121.788330 
	C110.050095,111.315361 110.007141,100.841187 110.007149,90.367401 
	C110.007149,87.621773 110.007149,84.876144 110.007149,82.284607 
	C97.033669,82.284607 84.799301,82.284607 72.163994,82.284607 
	C72.163994,96.323647 72.130577,110.074799 72.255211,123.824524 
	C72.261978,124.571159 73.590561,125.305817 75.197525,125.993904 
	C80.299942,126.010010 85.402351,126.026115 91.336708,126.096344 
	C91.613747,126.075996 91.890785,126.055641 93.079536,125.987572 
M129.051086,77.495483 
	C130.467499,77.388588 131.883926,77.281693 133.273529,77.176819 
	C133.273529,74.890305 133.273529,73.131462 133.273529,71.363007 
	C105.114548,71.363007 77.246407,71.363007 49.516075,71.363007 
	C49.516075,73.490532 49.516075,75.254219 49.516075,77.495575 
	C75.924400,77.495575 102.033630,77.495575 129.051086,77.495483 
M90.499954,69.114288 
	C104.746422,69.114288 118.992897,69.114288 133.519409,69.114288 
	C133.402756,66.715279 133.317993,64.972137 133.237747,63.321785 
	C105.008911,63.321785 77.202156,63.321785 49.501457,63.321785 
	C49.501457,65.371712 49.501457,66.983398 49.501457,69.114288 
	C62.987385,69.114288 76.243668,69.114288 90.499954,69.114288 
M98.498398,128.163498 
	C87.962250,128.163498 77.426102,128.163498 66.448639,128.163498 
	C66.638832,130.500214 66.763565,132.032776 66.880295,133.467010 
	C83.570068,133.467010 99.728058,133.467010 116.231796,133.467010 
	C116.075417,131.517334 115.950974,129.965759 115.806427,128.163498 
	C110.081749,128.163498 104.789642,128.163498 98.498398,128.163498 
M129.052277,112.495667 
	C123.443924,112.495667 117.835571,112.495667 112.127357,112.495667 
	C112.127357,114.907730 112.127357,116.798798 112.127357,118.755157 
	C119.314453,118.755157 126.207916,118.755157 133.485703,118.755157 
	C133.147202,115.927719 135.444305,112.167542 129.052277,112.495667 
M118.651764,102.511223 
	C123.435745,102.511223 128.219727,102.511223 133.279510,102.511223 
	C133.279510,100.082199 133.279510,98.191399 133.279510,96.066711 
	C126.107742,96.066711 119.199722,96.066711 112.070648,96.066711 
	C112.070648,98.207336 112.070648,100.116692 112.070648,102.511116 
	C114.098053,102.511116 115.900826,102.511116 118.651764,102.511223 
M112.815788,93.926704 
	C119.567421,93.926704 126.319061,93.926704 133.223999,93.926704 
	C133.223999,91.670685 133.223999,89.802307 133.223999,87.770020 
	C125.992584,87.770020 119.110611,87.770020 112.017738,87.770020 
	C112.017738,89.839355 112.017738,91.635521 112.815788,93.926704 
M55.732094,112.484367 
	C53.652439,112.484367 51.572784,112.484367 49.438278,112.484367 
	C49.438278,115.031410 49.438278,116.789078 49.438278,118.659729 
	C56.534290,118.659729 63.386612,118.659729 70.546326,118.659729 
	C70.429054,116.417679 70.331024,114.543381 70.223335,112.484459 
	C65.280273,112.484459 60.974731,112.484459 55.732094,112.484367 
M66.054062,102.521919 
	C67.457619,102.412621 68.861176,102.303314 70.099625,102.206871 
	C70.099625,99.796318 70.099625,97.923981 70.099625,96.142906 
	C62.975620,96.142906 56.268070,96.142906 49.537693,96.142906 
	C49.537693,98.335480 49.537693,100.205894 49.537693,102.522110 
	C54.960484,102.522110 60.054623,102.522110 66.054062,102.521919 
M70.189842,88.229752 
	C63.331791,87.893669 56.473740,87.557579 49.561615,87.218842 
	C49.561615,89.996475 49.561615,91.871536 49.561615,93.713882 
	C56.665321,93.713882 63.404331,93.713882 70.446571,93.713882 
	C70.446571,91.956329 70.446571,90.489632 70.189842,88.229752 
M133.236938,104.513626 
	C126.203384,104.513626 119.169838,104.513626 112.106522,104.513626 
	C112.106522,106.473022 112.106522,108.391769 112.106522,110.546158 
	C119.213936,110.546158 126.078209,110.546158 133.468170,110.546158 
	C133.468170,108.677689 133.468170,107.069588 133.236938,104.513626 
M49.220730,107.430244 
	C50.007076,108.557205 50.750496,110.622787 51.586639,110.661041 
	C57.682877,110.939865 63.797764,110.811127 70.181732,110.811127 
	C70.181732,108.374557 70.181732,106.444168 70.181732,104.020958 
	C63.899166,104.020958 57.616905,103.938507 51.343163,104.132095 
	C50.612453,104.154640 49.928860,105.704102 49.220730,107.430244 
M112.231567,125.990608 
	C119.229019,125.990608 126.226471,125.990608 133.573486,125.990608 
	C133.483200,124.221291 133.403763,122.664406 133.322250,121.066910 
	C125.987938,121.066910 119.111595,121.066910 111.890274,121.066910 
	C111.890274,122.582611 111.890274,123.860611 112.231567,125.990608 
M61.446106,120.826157 
	C57.520386,120.826157 53.594669,120.826157 49.462990,120.826157 
	C49.462990,122.883484 49.462990,124.431442 49.462990,126.149734 
	C56.542225,126.149734 63.359562,126.149734 70.518944,126.149734 
	C70.416641,124.200058 70.334732,122.638977 70.239616,120.826157 
	C67.338425,120.826157 64.876289,120.826157 61.446106,120.826157 
M137.825592,88.257057 
	C137.582321,90.026184 137.339050,91.795311 137.095779,93.564430 
	C138.661041,93.174606 140.226303,92.784782 141.791565,92.394966 
	C140.726166,90.953400 139.660782,89.511833 137.825592,88.257057 
M141.974777,99.501823 
	C140.546555,98.471703 139.118332,97.441574 137.690109,96.411453 
	C137.301987,97.947021 136.913879,99.482582 136.525757,101.018150 
	C138.300766,100.775215 140.075790,100.532280 141.974777,99.501823 
M41.089577,100.839638 
	C42.693645,100.991295 44.316315,101.314949 45.885628,101.145218 
	C46.188831,101.112434 46.776833,98.851761 46.353268,98.150284 
	C45.781368,97.203156 44.357635,96.770378 43.299416,96.116898 
	C42.467209,97.468651 41.635002,98.820396 41.089577,100.839638 
M137.073761,85.491699 
	C139.446945,86.493065 141.620224,86.205276 141.799133,83.364136 
	C141.864624,82.324394 139.689621,80.162338 138.634308,80.222557 
	C135.796249,80.384521 135.461151,82.533302 137.073761,85.491699 
M138.576157,77.984779 
	C139.706284,76.905556 141.009308,75.938904 141.839294,74.664238 
	C142.035355,74.363136 140.744522,72.450310 139.951584,72.306755 
	C138.887772,72.114151 136.643250,72.938354 136.649429,73.295898 
	C136.675842,74.824432 137.343445,76.341873 138.576157,77.984779 
M136.128067,65.771706 
	C135.679459,68.387207 136.592804,70.346741 139.388535,69.764389 
	C140.428131,69.547836 141.025513,67.208252 141.824539,65.836800 
	C140.051376,65.582680 138.278229,65.328552 136.128067,65.771706 
M43.349636,126.142433 
	C44.484203,125.272789 45.875137,124.568542 46.604759,123.437645 
	C46.838493,123.075325 45.495388,121.066582 44.559818,120.755653 
	C43.621471,120.443787 42.291466,121.310387 41.133114,121.660484 
	C41.600971,123.126297 42.068829,124.592110 43.349636,126.142433 
M43.337437,110.111023 
	C44.478340,109.201744 45.945324,108.473244 46.599110,107.293930 
	C46.859386,106.824432 45.505409,104.837158 44.546677,104.496399 
	C43.653553,104.178955 41.322445,105.165306 41.334896,105.517204 
	C41.388451,107.030769 42.071999,108.522049 43.337437,110.111023 
M141.449295,109.028793 
	C142.699219,106.502800 141.759247,104.605377 139.209274,104.406219 
	C138.221313,104.329063 137.058136,106.495110 135.974777,107.639244 
	C137.616074,108.301651 139.257385,108.964066 141.449295,109.028793 
M42.526367,118.035568 
	C45.059097,118.407867 47.072620,117.646385 46.548721,114.805511 
	C46.361595,113.790802 43.975037,112.223129 43.029984,112.485283 
	C40.115913,113.293663 39.881828,115.418854 42.526367,118.035568 
M137.781433,126.019958 
	C140.223755,126.308647 142.491516,125.953094 141.767853,122.834427 
	C141.543945,121.869431 139.150848,120.525436 138.133667,120.795662 
	C135.313934,121.544754 135.257294,123.584122 137.781433,126.019958 
z"/>
<path fill="#EDEDED" opacity="1.000000" stroke="none" 
	d="
M201.334763,77.272636 
	C202.332321,74.378250 203.442307,71.721588 203.499039,69.042603 
	C203.714142,58.887157 203.629456,48.724255 203.572525,38.564613 
	C203.543365,33.361702 204.835953,27.343643 195.946228,26.908049 
	C196.299286,26.284363 196.652344,25.660679 197.005402,25.036993 
	C207.837494,25.697779 218.755920,25.739576 229.471710,27.234238 
	C236.768021,28.251944 239.959808,33.132805 240.102798,39.706985 
	C240.245728,46.278793 237.178741,50.197639 229.919250,52.689323 
	C228.693405,53.110073 227.446503,53.469448 226.150360,53.875648 
	C231.599945,63.357250 243.541611,76.430748 248.998444,78.983574 
	C242.173813,81.757767 236.295197,80.296333 232.035873,74.774200 
	C227.663635,69.105667 223.431702,63.318588 218.823502,57.848640 
	C217.417145,56.179287 214.969635,55.387062 212.056549,53.622227 
	C212.056549,60.978355 212.197922,66.626366 212.014038,72.263779 
	C211.852219,77.224754 215.621185,77.823860 218.957367,79.531303 
	C211.712723,79.531303 204.468079,79.531303 197.223419,79.531303 
	C197.121124,79.340645 197.018829,79.149979 196.916534,78.959320 
	C198.265533,78.472916 199.614532,77.986511 201.334763,77.272636 
M212.102386,30.964069 
	C212.102386,37.880783 212.102386,44.797497 212.102386,51.998566 
	C219.360565,50.958881 226.995697,52.157425 230.347351,44.264336 
	C232.112320,40.107807 231.603683,35.682926 228.203201,32.189320 
	C224.862228,28.756840 217.388962,27.847445 212.102386,30.964069 
z"/>
<path fill="#E9EAEA" opacity="1.000000" stroke="none" 
	d="
M393.814240,57.150829 
	C393.812073,55.342030 393.807587,54.009979 393.808197,52.677933 
	C393.809814,49.141113 393.263855,46.092495 388.312012,46.101730 
	C392.082947,44.823982 395.853882,43.546238 399.993805,42.143452 
	C400.300842,44.111240 400.544861,45.675079 400.798279,47.299274 
	C415.666687,40.685371 416.879761,40.732262 421.692535,48.022964 
	C424.817902,46.304367 427.788483,44.144192 431.107117,42.956699 
	C437.820526,40.554462 443.012268,43.368431 443.947296,50.400902 
	C444.862762,57.286098 444.681061,64.325127 444.845032,71.299835 
	C444.981201,77.094200 444.893707,77.096260 449.874786,79.644096 
	C449.245911,79.801376 448.839844,79.989883 448.433075,79.991470 
	C443.289368,80.011528 438.145508,80.004654 432.357819,79.585274 
	C439.025452,78.155182 437.798950,73.267700 437.811798,68.999069 
	C437.827820,63.672798 437.850647,58.341114 437.634430,53.021366 
	C437.472229,49.030537 435.742828,46.401569 431.130157,46.682293 
	C426.311249,46.975563 422.946167,49.815964 422.887970,54.118797 
	C422.809174,59.945469 423.015045,65.778877 422.820557,71.600098 
	C422.687195,75.591591 423.665802,78.477074 428.092194,79.589691 
	C422.329285,79.589691 416.566345,79.589691 410.803436,79.589691 
	C416.881897,78.270134 415.778351,73.392410 415.800446,69.102913 
	C415.826996,63.942345 415.956116,58.769054 415.649780,53.624557 
	C415.436554,50.043919 414.638702,46.513172 409.663666,46.737923 
	C404.290588,46.980659 400.894287,49.911064 400.863373,54.621246 
	C400.826233,60.282246 400.846863,65.943687 400.857086,71.604912 
	C400.867157,77.200768 400.875122,77.200752 406.545074,79.621979 
	C399.925262,79.621979 394.223999,79.621979 388.522766,79.621979 
	C394.410583,78.719154 393.842041,74.275826 393.819031,70.115791 
	C393.795990,65.953178 393.814148,61.790329 393.814240,57.150829 
z"/>
<path fill="#EAEBEB" opacity="1.000000" stroke="none" 
	d="
M314.267242,62.018539 
	C314.232330,58.699039 314.287781,55.866905 314.139648,53.045456 
	C313.952026,49.472126 312.459167,46.970188 308.426178,46.921696 
	C304.691223,46.876789 300.131134,50.111526 300.063354,53.217541 
	C299.910980,60.201683 299.756470,67.208145 300.196655,74.167969 
	C300.314575,76.032516 302.570282,77.761856 303.814880,79.511528 
	C299.350616,79.511528 293.938263,79.511528 286.894806,79.511528 
	C294.271088,77.913666 292.943085,73.061424 292.995544,68.828308 
	C293.061523,63.505280 293.047577,58.180462 292.998810,52.857052 
	C292.953217,47.877647 292.803589,47.734650 287.000641,46.250805 
	C291.630554,44.713528 295.298645,43.495609 299.385529,42.138645 
	C299.664612,44.145988 299.903015,45.860691 300.190399,47.927586 
	C302.024567,46.588757 303.655396,45.242840 305.431702,44.128918 
	C312.702972,39.569130 320.311493,43.103271 321.011871,51.679520 
	C321.538483,58.128593 320.962616,64.666405 321.460907,71.119667 
	C321.686737,74.044609 323.327087,76.860336 324.316071,79.697876 
	C320.372681,79.697876 315.081421,79.697876 309.322571,79.697876 
	C317.469818,75.549522 313.153931,68.319962 314.267242,62.018539 
z"/>
<path fill="#E5E6E6" opacity="1.000000" stroke="none" 
	d="
M354.906952,51.074242 
	C357.089020,44.442493 362.752594,41.345184 370.471039,42.177704 
	C376.938629,42.875301 379.928955,45.918095 380.373505,53.069122 
	C380.734375,58.873756 380.526245,64.712479 380.622894,70.535217 
	C380.707794,75.650314 380.739868,75.649780 385.727966,76.237900 
	C385.951813,76.671928 386.175629,77.105957 386.399475,77.539986 
	C383.995911,78.664017 381.542542,80.750481 379.203430,80.629433 
	C377.054413,80.518211 375.028381,78.029236 372.487244,76.268433 
	C371.082520,77.072945 368.619873,78.796776 365.916443,79.961960 
	C361.273926,81.962898 356.778198,80.599991 354.504761,76.879395 
	C352.132507,72.997078 352.655487,67.518524 356.601135,64.741959 
	C360.757416,61.817142 365.389069,59.319084 370.157837,57.580326 
	C375.379303,55.676514 373.915833,52.067120 373.349091,48.670116 
	C372.733093,44.977631 369.837708,43.989731 366.573090,44.390663 
	C363.391846,44.781353 361.619629,46.403831 361.823059,50.116840 
	C361.907043,51.649216 360.241180,53.277458 359.371155,54.862091 
	C357.875671,53.731804 356.380219,52.601521 354.906952,51.074242 
M361.652893,65.650513 
	C361.336823,67.086830 360.327759,68.879883 360.846039,69.886719 
	C361.997253,72.123146 363.647125,75.285118 365.577606,75.675285 
	C368.898560,76.346458 372.977661,75.194534 373.613922,70.899620 
	C374.199799,66.944641 373.738525,62.834549 373.738525,57.080376 
	C368.990570,60.283772 365.519562,62.625626 361.652893,65.650513 
z"/>
<path fill="#E9EAEA" opacity="1.000000" stroke="none" 
	d="
M456.747559,48.827854 
	C460.776550,43.677742 465.826294,41.565159 471.878479,42.264912 
	C478.938690,43.081219 482.666565,47.741188 483.815826,57.074390 
	C475.710205,57.074390 467.641785,57.074390 459.672089,57.074390 
	C458.400024,64.064148 461.233612,71.420479 466.274933,73.774567 
	C474.453735,77.593712 479.759918,72.924530 484.544708,66.450508 
	C484.371490,73.013008 478.734711,78.967628 471.809906,80.522598 
	C464.501740,82.163651 457.733948,79.181244 454.857361,72.468559 
	C451.448090,64.512794 451.853790,56.609703 456.747559,48.827854 
M472.590668,46.896927 
	C465.223999,43.200844 460.078552,46.106552 459.483276,54.270302 
	C464.650635,54.270302 469.811859,54.270302 475.833435,54.270302 
	C474.765900,51.595943 473.943817,49.536461 472.590668,46.896927 
z"/>
<path fill="#E9EAEA" opacity="1.000000" stroke="none" 
	d="
M282.222321,52.089897 
	C282.600739,53.894245 282.867096,55.306118 283.226501,57.211193 
	C274.640411,57.211193 266.543518,57.211193 258.107971,57.211193 
	C258.528809,64.101013 259.242493,70.592667 265.762360,73.802437 
	C273.798096,77.758484 279.141296,72.748146 284.142059,65.992935 
	C282.898193,74.613152 276.298492,80.438141 268.378845,80.888741 
	C260.805206,81.319641 254.943008,77.143768 252.961716,69.494850 
	C250.851868,61.349674 251.563202,53.549168 257.517548,47.071716 
	C264.971436,38.962971 279.564850,40.945324 282.222321,52.089897 
M259.572937,54.580471 
	C264.472504,54.580471 269.372070,54.580471 274.304138,54.580471 
	C273.731018,47.726322 271.557373,45.131859 266.809326,45.185028 
	C261.899078,45.240013 259.084381,48.453339 259.572937,54.580471 
z"/>
<path fill="#E9EAEA" opacity="1.000000" stroke="none" 
	d="
M340.190674,70.429108 
	C341.627350,76.863419 341.843353,76.976463 349.419037,75.263184 
	C347.298004,79.408897 344.064667,80.927765 340.090607,80.842979 
	C336.120575,80.758286 333.895782,78.108444 333.670837,74.474686 
	C333.220245,67.196281 333.259460,59.887173 333.116577,52.590343 
	C333.077728,50.606091 333.110687,48.620430 333.110687,46.245811 
	C331.675720,45.981010 330.348419,45.736069 328.690674,45.430153 
	C332.480682,41.137947 335.926910,37.235039 339.913055,32.720707 
	C339.913055,36.288815 339.913055,39.422070 339.913055,42.779369 
	C343.137024,42.943390 345.713165,43.074451 348.289276,43.205517 
	C348.402893,43.786438 348.516479,44.367359 348.630066,44.948280 
	C345.984528,45.399837 343.338989,45.851395 340.164520,46.393238 
	C340.164520,54.109257 340.164520,62.045193 340.190674,70.429108 
z"/>
<path fill="#2A3E3D" opacity="1.000000" stroke="none" 
	d="
M105.977531,60.821838 
	C95.285240,60.546844 84.593567,60.100430 73.900414,60.061287 
	C67.506905,60.037880 61.112888,60.709106 54.714188,60.916443 
	C53.795124,60.946224 52.848377,60.121559 51.957199,59.346222 
	C53.401100,57.706646 54.802246,56.413166 56.977913,55.124599 
	C64.594482,54.808937 71.436119,54.478607 78.279327,54.184856 
	C78.877129,54.159191 79.574921,54.217232 80.073845,54.502750 
	C83.065956,56.215038 83.229492,56.186283 85.031769,52.977905 
	C85.013199,53.004570 84.960388,52.965939 85.138596,53.339417 
	C85.863686,53.178528 86.410568,52.644161 87.095459,51.818962 
	C90.475868,47.285427 92.371140,47.406910 96.114090,52.416771 
	C98.141083,54.186783 100.084564,55.632034 102.265427,57.288303 
	C103.323219,57.642563 104.143616,57.785805 104.964012,57.929047 
	C104.964012,57.929047 105.028526,57.967926 105.066635,58.295464 
	C105.395676,59.355946 105.686600,60.088894 105.977531,60.821838 
z"/>
<path fill="#DCDFDE" opacity="1.000000" stroke="none" 
	d="
M154.375244,128.947723 
	C153.994766,128.447433 153.993576,128.088699 153.993195,127.460907 
	C155.247742,127.406967 156.501465,127.622078 157.843887,127.852402 
	C157.843887,120.872887 157.843887,114.150101 157.252045,106.820335 
	C156.540787,105.908218 156.421402,105.603073 156.302017,105.297928 
	C156.888290,103.455864 157.474548,101.613800 158.284256,99.389069 
	C158.719131,98.985443 158.930557,98.964478 159.141983,98.943520 
	C161.532761,103.035828 162.058868,108.710457 168.547165,109.325676 
	C168.252533,109.828987 167.957901,110.332298 167.663269,110.835609 
	C165.264099,109.774559 162.864929,108.713501 159.908478,107.405991 
	C161.924255,115.778809 155.879791,125.393456 163.704483,133.705917 
	C163.310089,133.480743 162.902679,133.275299 162.524460,133.025604 
	C161.993393,132.675003 161.484024,132.291534 160.116226,131.317291 
	C160.116226,135.937286 160.116226,139.868515 160.116226,143.799744 
	C159.444168,143.801025 158.772125,143.802292 158.100067,143.803574 
	C158.100067,140.371658 157.901535,136.924545 158.162827,133.512634 
	C158.372269,130.778015 157.198608,129.555954 154.375244,128.947723 
z"/>
<path fill="#D2D5D5" opacity="1.000000" stroke="none" 
	d="
M286.753693,135.548264 
	C281.304993,130.253281 280.881012,124.391739 285.348083,120.106781 
	C289.530273,116.095078 295.457581,116.249786 299.922241,121.418602 
	C294.012207,119.195114 288.458740,117.661263 285.711456,123.761749 
	C284.672974,126.067818 285.329681,130.211990 286.847168,132.369354 
	C289.951263,136.782471 294.601257,135.260635 298.987427,133.159775 
	C297.288300,137.607224 293.333374,138.361420 286.753693,135.548264 
z"/>
<path fill="#E1E2E2" opacity="1.000000" stroke="none" 
	d="
M121.042015,45.075787 
	C122.202568,45.075787 123.363121,45.075787 124.742943,45.075787 
	C124.742943,39.787243 124.742943,34.566975 124.742943,29.131382 
	C122.614685,29.131382 120.676491,29.131382 118.234642,29.131382 
	C118.234642,33.239525 118.234642,37.464111 118.234642,42.431732 
	C116.410202,41.655819 115.277740,41.174198 114.244362,40.219788 
	C114.543266,39.440002 114.743088,39.132999 114.942909,38.825996 
	C115.453712,35.111343 115.964523,31.396690 116.541763,27.198908 
	C117.478172,27.073662 118.849861,26.890196 120.527100,26.665863 
	C120.655602,25.059605 120.782707,23.470875 121.272980,21.670147 
	C121.855415,21.790062 122.074677,22.121975 122.293930,22.453888 
	C122.293930,23.779987 122.293930,25.106087 122.293930,26.606955 
	C123.767914,26.836926 125.183937,27.057852 127.129219,27.361355 
	C127.129219,34.569866 127.129219,41.639442 127.129219,49.184326 
	C125.244087,48.083458 123.225624,46.904732 121.109131,45.367760 
	C121.011093,45.009510 121.042015,45.075787 121.042015,45.075787 
z"/>
<path fill="#D2D5D5" opacity="1.000000" stroke="none" 
	d="
M357.293213,133.585907 
	C357.089600,135.030502 356.886536,136.041321 356.683472,137.052155 
	C356.331909,137.029343 355.980347,137.006546 355.628784,136.983734 
	C355.628784,132.237885 355.628784,127.492020 355.628784,122.592857 
	C359.397675,124.700287 365.175323,118.959679 367.761719,124.994217 
	C369.256195,128.481125 368.770935,132.816574 369.176697,136.770111 
	C368.512970,136.851959 367.849243,136.933807 367.185486,137.015671 
	C367.005005,135.309433 366.763916,133.606995 366.657043,131.896179 
	C366.455231,128.665771 367.349396,124.436890 362.495819,124.291054 
	C357.294647,124.134766 357.257812,128.336151 357.293579,132.152817 
	C357.296692,132.485901 357.293854,132.819046 357.293213,133.585907 
z"/>
<path fill="#E1E2E2" opacity="1.000000" stroke="none" 
	d="
M275.250183,33.210842 
	C271.597168,35.375652 268.255219,37.354198 264.913269,39.332741 
	C264.738586,39.054684 264.563934,38.776630 264.389252,38.498573 
	C268.583862,34.027237 272.686340,29.461136 277.077118,25.191551 
	C277.701721,24.584208 279.725861,25.416109 281.102234,25.581882 
	C280.899902,26.936232 281.152100,28.688192 280.393219,29.555635 
	C279.121918,31.008818 277.205963,31.898027 275.250183,33.210842 
z"/>
<path fill="#DCDFDE" opacity="1.000000" stroke="none" 
	d="
M339.828125,136.413208 
	C335.981567,130.646378 337.330139,129.325699 347.413361,128.415146 
	C347.101013,124.039200 347.101013,124.039200 338.670349,124.794868 
	C338.607544,124.314957 338.544708,123.835045 338.481903,123.355133 
	C341.230164,123.115868 344.250397,122.089188 346.631927,122.911720 
	C348.243347,123.468292 349.461029,126.513702 349.939423,128.650848 
	C350.501007,131.159500 350.070892,133.890167 350.070892,136.643127 
	C346.609039,136.643127 343.392029,136.643127 339.828125,136.413208 
M347.965393,131.502853 
	C346.880035,131.071884 345.718353,130.161194 344.726624,130.318878 
	C343.114532,130.575241 341.575134,131.463730 340.126129,132.296188 
	C339.983063,132.378403 340.582184,134.609360 341.005615,134.670288 
	C342.704102,134.914719 344.517731,134.917099 346.186615,134.547394 
	C346.902740,134.388794 347.368927,133.102051 347.965393,131.502853 
z"/>
<path fill="#E9EAEA" opacity="1.000000" stroke="none" 
	d="
M105.013802,41.701668 
	C107.608841,43.236237 110.203873,44.770802 112.760895,46.807259 
	C112.609612,47.434475 112.496330,47.559803 112.034622,47.488441 
	C98.189117,47.257633 84.692047,47.223515 70.957916,47.068737 
	C70.508926,46.675110 70.296997,46.402145 70.085060,46.129173 
	C71.700623,45.059753 73.316193,43.990330 75.683662,42.893272 
	C76.732811,42.940956 77.030067,43.016285 77.474258,43.481339 
	C86.802094,43.871059 95.982986,43.871059 105.362305,43.871059 
	C104.613068,42.932350 104.223633,42.444427 104.125259,41.875046 
	C104.615486,41.762951 104.814644,41.732311 105.013802,41.701668 
z"/>
<path fill="#D2D5D5" opacity="1.000000" stroke="none" 
	d="
M38.188015,34.094589 
	C43.838150,34.308933 49.540611,34.142265 52.129128,27.982718 
	C53.322239,25.143642 53.249474,21.772589 53.725788,18.798206 
	C59.507423,22.883108 60.831486,28.364147 56.908512,35.923691 
	C55.991962,36.087513 55.729748,36.092281 55.467533,36.097046 
	C57.305054,32.351341 58.433975,28.551287 56.055141,24.164871 
	C55.753605,23.824442 55.481884,23.653204 55.481884,23.653204 
	C55.481884,23.653204 55.460995,24.037128 55.460995,24.037128 
	C53.508804,33.080753 48.737587,36.516277 38.912933,35.436722 
	C38.397770,34.842381 38.292892,34.468483 38.188015,34.094589 
z"/>
<path fill="#C3C8C8" opacity="1.000000" stroke="none" 
	d="
M122.566139,22.165892 
	C122.074677,22.121975 121.855415,21.790062 121.409927,21.263809 
	C123.112152,20.141491 124.997017,18.541716 126.977325,18.413252 
	C132.604706,18.048203 138.280350,18.083597 143.919159,18.345325 
	C148.528122,18.559252 151.518234,17.608130 150.737350,12.123859 
	C150.642471,11.457551 151.080399,10.715375 151.383942,9.591774 
	C154.321747,16.557764 152.231064,20.076958 145.621155,20.103107 
	C139.804031,20.126120 133.981628,19.971506 128.172577,20.189308 
	C126.375916,20.256672 124.615410,21.287949 122.566139,22.165892 
z"/>
<path fill="#DCDFDE" opacity="1.000000" stroke="none" 
	d="
M376.013458,129.146210 
	C378.147736,128.926773 380.282013,128.707306 382.422333,128.487228 
	C382.641144,123.958733 382.172638,123.752068 374.070679,124.844032 
	C373.990570,124.354599 373.910492,123.865166 373.830383,123.375740 
	C376.421112,123.080467 379.223083,122.062798 381.530121,122.737526 
	C383.135254,123.206985 384.620880,125.849686 385.144958,127.794952 
	C385.770538,130.117004 385.423920,132.739777 385.227661,135.210785 
	C385.189728,135.688400 383.904785,136.066971 382.403839,136.043228 
	C382.147430,134.014938 382.682251,132.434631 383.487396,130.055649 
	C380.440765,130.336578 378.356781,130.528732 376.206909,130.327393 
	C376.098541,129.671341 376.056000,129.408768 376.013458,129.146210 
z"/>
<path fill="#D2D5D5" opacity="1.000000" stroke="none" 
	d="
M323.031891,124.158409 
	C326.309601,120.864929 329.782806,121.592186 332.687500,124.336868 
	C335.718536,127.200974 335.886505,130.950653 333.376495,134.274841 
	C330.635834,137.904510 327.027618,138.055115 323.471680,135.337143 
	C323.983276,134.880280 324.261353,134.838104 324.929199,134.845261 
	C328.292969,135.433060 331.361023,135.237839 332.030914,131.836334 
	C332.431549,129.801941 331.729431,126.075928 330.468201,125.525040 
	C328.440674,124.639435 325.540131,125.752563 322.981873,125.710518 
	C322.980835,124.986053 323.006348,124.572227 323.031891,124.158409 
z"/>
<path fill="#DCDFDE" opacity="1.000000" stroke="none" 
	d="
M303.455994,135.511002 
	C302.017883,129.704773 302.197906,129.562897 312.283081,128.268372 
	C312.283081,126.959068 312.283081,125.616348 312.283081,124.351303 
	C314.875854,123.655174 315.544983,127.667702 314.597107,136.629379 
	C311.205750,135.447968 311.205750,135.447968 312.946594,130.156586 
	C310.263641,130.480911 307.733765,130.284531 305.797302,131.262833 
	C304.999176,131.666046 305.476593,134.594116 305.359711,136.618805 
	C304.962433,136.417618 304.329102,136.096893 303.455994,135.511002 
z"/>
<path fill="#D2D5D5" opacity="1.000000" stroke="none" 
	d="
M399.218445,124.622757 
	C396.132996,124.373001 393.140289,122.856544 390.695038,126.820602 
	C392.941772,127.925957 395.066772,128.696609 396.859558,129.944489 
	C398.182037,130.864990 399.071014,132.408310 400.153137,133.674133 
	C398.851685,134.688034 397.550201,135.701935 396.248718,136.715851 
	C396.037567,136.439835 395.826416,136.163834 395.615265,135.887817 
	C396.356964,134.802612 397.098633,133.717392 397.840332,132.632172 
	C396.726807,132.032776 395.552399,131.522629 394.512939,130.814484 
	C392.624481,129.527939 390.645111,128.277878 389.145721,126.614204 
	C388.900482,126.342064 390.879150,122.916687 391.898682,122.880417 
	C394.420898,122.790688 396.982971,123.820717 399.218445,124.622757 
z"/>
<path fill="#D2D5D5" opacity="1.000000" stroke="none" 
	d="
M159.251434,98.631256 
	C158.930557,98.964478 158.719131,98.985443 158.189728,99.027969 
	C155.763840,100.106812 153.655945,101.164078 151.952652,102.018402 
	C154.134109,98.299408 156.192734,94.789848 158.633667,91.176849 
	C159.015991,91.073418 158.944397,91.063385 158.944397,91.063385 
	C161.738632,94.729897 164.532852,98.396408 167.811020,102.697937 
	C164.850143,101.163582 162.105515,99.741295 159.251434,98.631256 
z"/>
<path fill="#DCDFDE" opacity="1.000000" stroke="none" 
	d="
M158.663177,90.838028 
	C158.944397,91.063385 159.015991,91.073418 159.036957,91.073975 
	C158.219345,91.038902 157.257217,90.719673 156.565460,91.021049 
	C154.524216,91.910355 152.589996,93.045273 150.161606,93.442322 
	C155.018051,90.915077 158.045212,87.334030 158.239807,80.694611 
	C161.514572,84.857758 159.962021,87.735512 158.663177,90.838028 
z"/>
<path fill="#EAEBEB" opacity="1.000000" stroke="none" 
	d="
M324.539459,134.795929 
	C324.261353,134.838104 323.983276,134.880280 323.289795,134.996582 
	C322.278015,135.735443 321.681549,136.400192 320.445221,137.778122 
	C320.445221,130.097794 320.445221,123.278801 320.445221,116.459808 
	C320.794586,116.408409 321.143982,116.357010 321.493347,116.305603 
	C321.746490,118.809532 321.999603,121.313469 322.642303,123.987900 
	C323.006348,124.572227 322.980835,124.986053 322.875977,126.069489 
	C321.114197,129.914322 322.203247,132.490021 324.539459,134.795929 
z"/>
<path fill="#E1E2E2" opacity="1.000000" stroke="none" 
	d="
M84.005714,37.011185 
	C85.776321,35.962437 87.546928,34.913689 90.026627,33.775017 
	C91.495087,33.697365 92.254448,33.709629 93.013817,33.721893 
	C94.997902,34.933582 96.981979,36.145271 99.084579,37.965302 
	C99.153397,38.765934 99.103691,38.958233 98.654915,38.991135 
	C93.868591,38.571854 89.481339,38.311974 84.882080,37.910851 
	C84.448624,37.516804 84.227165,37.263996 84.005714,37.011185 
z"/>
<path fill="#E9EAEA" opacity="1.000000" stroke="none" 
	d="
M85.050339,52.951237 
	C83.229492,56.186283 83.065956,56.215038 80.073845,54.502750 
	C79.574921,54.217232 78.877129,54.159191 78.279327,54.184856 
	C71.436119,54.478607 64.594482,54.808937 57.318760,55.078270 
	C58.526932,53.918564 60.168774,52.810104 62.477432,51.973942 
	C63.892345,52.357243 64.640442,52.468246 65.829819,52.537334 
	C72.530838,52.647362 78.790588,52.799297 85.050339,52.951237 
z"/>
<path fill="#314544" opacity="1.000000" stroke="none" 
	d="
M376.272766,130.720901 
	C378.356781,130.528732 380.440765,130.336578 383.487396,130.055649 
	C382.682251,132.434631 382.147430,134.014938 382.091400,135.820938 
	C382.570221,136.046646 382.545288,136.051514 382.603271,135.550690 
	C381.204956,135.132172 379.722595,135.427200 378.297729,135.252594 
	C375.310272,134.886475 373.989105,133.551193 376.272766,130.720901 
z"/>
<path fill="#EDEDED" opacity="1.000000" stroke="none" 
	d="
M102.028038,57.077282 
	C100.084564,55.632034 98.141083,54.186783 96.536377,52.391068 
	C103.460114,52.224503 110.045097,52.408409 117.003220,52.748482 
	C118.645088,52.543053 119.913811,52.181461 121.182541,51.819870 
	C121.695633,52.060337 122.208717,52.300808 122.850723,52.990913 
	C122.979645,53.440548 122.966354,53.896351 122.966354,53.896351 
	C116.960327,53.998951 110.954308,54.101555 104.122803,54.196487 
	C102.874222,55.151642 102.451126,56.114460 102.028038,57.077282 
z"/>
<path fill="#D2D5D5" opacity="1.000000" stroke="none" 
	d="
M21.702229,130.210785 
	C22.272619,130.369522 22.516033,130.601959 22.975191,130.968018 
	C19.937160,135.111206 16.683386,139.120743 13.466021,143.085434 
	C13.409068,137.557343 16.682020,133.535782 21.702229,130.210785 
z"/>
<path fill="#D2D5D5" opacity="1.000000" stroke="none" 
	d="
M376.206909,130.327393 
	C373.989105,133.551193 375.310272,134.886475 378.297729,135.252594 
	C379.722595,135.427200 381.204956,135.132172 382.595398,135.542206 
	C381.122986,136.410263 379.615417,137.293350 378.334442,137.038284 
	C376.580200,136.688965 374.008850,135.797180 373.602173,134.547424 
	C373.134216,133.109467 374.645782,131.027344 375.655518,129.185608 
	C376.056000,129.408768 376.098541,129.671341 376.206909,130.327393 
z"/>
<path fill="#A7AFAF" opacity="1.000000" stroke="none" 
	d="
M23.096481,104.300484 
	C23.834829,104.832901 24.327892,105.627151 24.681360,106.625496 
	C21.957138,108.184227 19.372509,109.538864 16.787882,110.893501 
	C16.554483,110.473473 16.321085,110.053436 16.087687,109.633408 
	C18.342190,107.943047 20.596691,106.252686 23.096481,104.300484 
z"/>
<path fill="#2F4242" opacity="1.000000" stroke="none" 
	d="
M55.160370,36.147106 
	C55.729748,36.092281 55.991962,36.087513 56.637878,36.169514 
	C55.933636,39.830860 53.401997,40.935081 48.547234,40.625469 
	C51.307720,38.686947 53.080463,37.442059 55.160370,36.147106 
z"/>
<path fill="#C3C8C8" opacity="1.000000" stroke="none" 
	d="
M39.682064,64.168884 
	C40.448277,64.010605 40.940334,64.029785 41.801094,64.070587 
	C41.814220,66.859909 41.458649,69.627609 41.103073,72.395302 
	C40.740883,72.424805 40.378693,72.454300 40.016502,72.483795 
	C39.813637,69.771309 39.610775,67.058815 39.682064,64.168884 
z"/>
<path fill="#A7AFAF" opacity="1.000000" stroke="none" 
	d="
M121.006058,51.529854 
	C119.913811,52.181461 118.645088,52.543053 117.136963,52.449173 
	C115.570381,50.683399 114.243195,49.373100 113.136215,47.952423 
	C113.704247,47.718449 113.898773,47.473244 113.939987,47.106430 
	C116.236511,48.484234 118.533043,49.862038 121.006058,51.529854 
z"/>
<path fill="#C3C8C8" opacity="1.000000" stroke="none" 
	d="
M83.672882,37.089447 
	C84.227165,37.263996 84.448624,37.516804 84.672623,38.173164 
	C82.225876,40.081684 79.776604,41.586651 77.327324,43.091618 
	C77.030067,43.016285 76.732811,42.940956 75.984756,42.774200 
	C78.135994,40.844414 80.738029,39.006058 83.672882,37.089447 
z"/>
<path fill="#A7AFAF" opacity="1.000000" stroke="none" 
	d="
M65.388542,52.579247 
	C64.640442,52.468246 63.892345,52.357243 62.814423,52.014061 
	C62.484596,51.781887 62.635853,51.737099 62.883545,51.786179 
	C63.235577,51.747902 63.437283,51.593807 63.429897,51.583031 
	C63.278065,51.361519 63.102398,51.156342 62.931469,50.947918 
	C65.099930,49.397999 67.268387,47.848080 69.760956,46.213669 
	C70.296997,46.402145 70.508926,46.675110 70.797874,47.358723 
	C69.046104,49.372662 67.217323,50.975952 65.388542,52.579247 
z"/>
<path fill="#C3C8C8" opacity="1.000000" stroke="none" 
	d="
M156.058716,105.540787 
	C156.421402,105.603073 156.540787,105.908218 156.846466,106.668198 
	C155.008102,108.595016 152.983444,110.067001 150.958771,111.538986 
	C150.632812,111.067322 150.306854,110.595657 149.980881,110.123985 
	C151.925735,108.677208 153.870575,107.230431 156.058716,105.540787 
z"/>
<path fill="#2A3E3D" opacity="1.000000" stroke="none" 
	d="
M75.876022,33.260635 
	C76.898880,35.609818 76.746605,35.756470 72.306267,35.727295 
	C73.393639,34.918819 74.481018,34.110348 75.876022,33.260635 
z"/>
<path fill="#2A3E3D" opacity="1.000000" stroke="none" 
	d="
M41.997261,58.005959 
	C43.379765,56.562077 44.765568,55.111679 46.151367,53.661278 
	C46.614349,54.236233 47.077328,54.811188 47.540310,55.386143 
	C45.929710,56.255348 44.319107,57.124554 42.347977,57.999863 
	C41.987450,58.005966 42.000561,57.999443 41.997261,58.005959 
z"/>
<path fill="#2A3E3D" opacity="1.000000" stroke="none" 
	d="
M87.287338,27.061714 
	C85.978828,28.265942 84.653610,29.164658 83.328400,30.063375 
	C82.997635,29.464067 82.666870,28.864758 82.336105,28.265450 
	C83.980949,27.762369 85.625801,27.259287 87.287338,27.061714 
z"/>
<path fill="#2A3E3D" opacity="1.000000" stroke="none" 
	d="
M55.262646,47.419861 
	C56.044533,47.802979 56.521038,48.301533 56.997547,48.800087 
	C55.812065,49.562313 54.626583,50.324543 53.441101,51.086773 
	C53.100788,50.730076 52.760475,50.373379 52.420162,50.016682 
	C53.265862,49.189556 54.111565,48.362427 55.262646,47.419861 
z"/>
<path fill="#2F4242" opacity="1.000000" stroke="none" 
	d="
M37.957230,33.907608 
	C38.292892,34.468483 38.397770,34.842381 38.507149,35.510838 
	C36.775269,35.285835 35.038891,34.766273 33.302517,34.246712 
	C33.491226,33.623520 33.679935,33.000332 33.868645,32.377144 
	C35.154579,32.824974 36.440514,33.272800 37.957230,33.907608 
z"/>
<path fill="#DCDFDE" opacity="1.000000" stroke="none" 
	d="
M26.015720,88.834946 
	C25.899809,88.974274 25.500166,88.988731 25.300320,88.995255 
	C24.455780,88.373367 23.811089,87.744957 22.933559,87.653145 
	C22.700722,88.189743 22.656206,88.279099 22.656208,88.279099 
	C23.643608,87.639915 24.631008,87.000732 25.836885,86.220123 
	C25.921314,86.929214 26.026474,87.812424 26.015720,88.834946 
z"/>
<path fill="#DCDFDE" opacity="1.000000" stroke="none" 
	d="
M30.975657,99.190399 
	C32.205860,99.596794 33.436062,100.003181 34.666267,100.409576 
	C34.613522,100.769707 34.560776,101.129845 34.508034,101.489975 
	C33.038654,101.225746 31.569279,100.961510 30.136786,100.287056 
	C30.441000,99.648026 30.708328,99.419212 30.975657,99.190399 
z"/>
<path fill="#DCDFDE" opacity="1.000000" stroke="none" 
	d="
M22.708132,96.158539 
	C23.211842,96.208710 23.449955,96.477646 23.838505,97.144409 
	C23.967722,97.709320 23.946503,97.876404 23.925285,98.043495 
	C23.925285,98.043495 23.946177,97.919777 23.977463,97.865906 
	C22.582304,98.719429 21.155857,99.626808 19.729410,100.534187 
	C19.566835,100.273117 19.404261,100.012047 19.241684,99.750977 
	C20.308634,98.626419 21.375586,97.501862 22.708132,96.158539 
z"/>
<path fill="#2F4242" opacity="1.000000" stroke="none" 
	d="
M102.265427,57.288303 
	C102.451126,56.114460 102.874222,55.151642 103.662689,54.277382 
	C104.334648,55.347469 104.641243,56.329002 104.955917,57.619789 
	C104.143616,57.785805 103.323219,57.642563 102.265427,57.288303 
z"/>
<path fill="#2A3E3D" opacity="1.000000" stroke="none" 
	d="
M39.950874,81.954880 
	C40.654381,80.624825 41.357891,79.294769 42.061398,77.964714 
	C42.443813,78.230408 42.826229,78.496094 43.208645,78.761787 
	C42.371563,79.804428 41.534481,80.847061 40.349297,81.945786 
	C40.001190,82.001862 39.950871,81.954880 39.950874,81.954880 
z"/>
<path fill="#2F4242" opacity="1.000000" stroke="none" 
	d="
M39.580009,40.229652 
	C40.640034,39.967392 41.749718,39.967392 42.859402,39.967392 
	C42.727825,40.506508 42.596249,41.045628 42.464668,41.584743 
	C41.519669,41.220467 40.574673,40.856190 39.580009,40.229652 
z"/>
<path fill="#2A3E3D" opacity="1.000000" stroke="none" 
	d="
M135.149490,53.855759 
	C135.983246,54.433575 136.819382,55.008259 137.627777,55.619625 
	C137.639633,55.628601 137.306076,56.094337 137.133728,56.346901 
	C136.427200,55.828846 135.720673,55.310799 135.004974,54.404427 
	C134.995804,54.016102 135.149490,53.855759 135.149490,53.855759 
z"/>
<path fill="#2A3E3D" opacity="1.000000" stroke="none" 
	d="
M95.148140,25.856720 
	C95.982124,26.432940 96.818420,27.006096 97.627167,27.615793 
	C97.638763,27.624535 97.305893,28.090212 97.133797,28.342632 
	C96.428513,27.824350 95.723221,27.306068 95.007690,26.400639 
	C94.997452,26.013489 95.148140,25.856720 95.148140,25.856720 
z"/>
<path fill="#2A3E3D" opacity="1.000000" stroke="none" 
	d="
M91.876633,24.125343 
	C91.190651,24.413153 90.504677,24.700964 89.818695,24.988777 
	C89.735359,24.538034 89.652016,24.087292 89.568672,23.636551 
	C90.365738,23.547987 91.162811,23.459425 91.982361,23.680531 
	C92.004852,23.990198 91.876633,24.125343 91.876633,24.125343 
z"/>
<path fill="#2F4242" opacity="1.000000" stroke="none" 
	d="
M106.291199,60.807121 
	C105.686600,60.088894 105.395676,59.355946 105.088470,58.326141 
	C105.996902,58.377220 106.921593,58.725147 107.934624,59.376671 
	C107.550262,60.050980 107.077568,60.421692 106.291199,60.807121 
z"/>
<path fill="#2A3E3D" opacity="1.000000" stroke="none" 
	d="
M99.053978,39.150528 
	C99.103691,38.958233 99.153397,38.765934 99.248909,38.279255 
	C100.171616,38.412975 101.048508,38.841076 101.964523,39.634140 
	C102.003639,39.999096 101.881462,40.133678 101.575943,40.097603 
	C100.531609,39.757858 99.792793,39.454193 99.053978,39.150528 
z"/>
<path fill="#2A3E3D" opacity="1.000000" stroke="none" 
	d="
M104.853226,33.142029 
	C104.071510,32.834011 103.289795,32.525993 102.508080,32.217976 
	C102.627899,31.928947 102.747719,31.639919 102.867546,31.350889 
	C103.555550,31.654118 104.243561,31.957346 104.967453,32.623470 
	C105.003349,32.986366 104.853226,33.142029 104.853226,33.142029 
z"/>
<path fill="#2A3E3D" opacity="1.000000" stroke="none" 
	d="
M104.915695,41.405846 
	C104.814644,41.732311 104.615486,41.762951 103.842064,41.815296 
	C102.805687,41.269222 102.343575,40.701450 101.881462,40.133678 
	C101.881462,40.133678 102.003639,39.999096 102.065170,39.929993 
	C103.023659,40.277267 103.920624,40.693645 104.915695,41.405846 
z"/>
<path fill="#2A3E3D" opacity="1.000000" stroke="none" 
	d="
M40.026028,82.025696 
	C39.780945,82.833633 39.511024,83.617737 39.241104,84.401848 
	C38.948463,84.274368 38.655823,84.146881 38.363186,84.019402 
	C38.700531,83.387886 39.037876,82.756371 39.663048,82.039871 
	C39.950871,81.954880 40.001190,82.001862 40.026028,82.025696 
z"/>
<path fill="#2A3E3D" opacity="1.000000" stroke="none" 
	d="
M64.852364,41.844852 
	C65.377060,41.319630 65.901764,40.794411 66.426460,40.269188 
	C66.715981,40.561699 67.005501,40.854210 67.295021,41.146721 
	C66.782829,41.453323 66.270630,41.759926 65.380783,42.032036 
	C65.003120,41.997543 64.852364,41.844852 64.852364,41.844852 
z"/>
<path fill="#2A3E3D" opacity="1.000000" stroke="none" 
	d="
M105.075775,32.906082 
	C105.925377,33.160896 106.702560,33.495998 107.479736,33.831097 
	C107.349487,34.116913 107.219238,34.402729 107.088997,34.688549 
	C106.417900,34.361225 105.746811,34.033905 104.964478,33.424309 
	C104.853226,33.142029 105.003349,32.986366 105.075775,32.906082 
z"/>
<path fill="#2A3E3D" opacity="1.000000" stroke="none" 
	d="
M114.737244,38.645798 
	C114.743088,39.132999 114.543266,39.440002 114.085663,39.856956 
	C113.421928,39.606606 113.015968,39.246304 112.610016,38.885994 
	C113.250542,38.745865 113.891060,38.605732 114.737244,38.645798 
z"/>
<path fill="#2F4242" opacity="1.000000" stroke="none" 
	d="
M123.028107,54.170082 
	C122.966354,53.896351 122.979645,53.440548 123.026367,53.217388 
	C123.599045,53.594875 124.125008,54.195522 124.650970,54.796169 
	C124.130600,54.678719 123.610229,54.561268 123.028107,54.170082 
z"/>
<path fill="#2A3E3D" opacity="1.000000" stroke="none" 
	d="
M92.067749,23.921505 
	C93.053345,24.320272 93.976044,24.787731 95.023438,25.555956 
	C95.148140,25.856720 94.997452,26.013489 94.924095,26.095795 
	C93.940804,25.693886 93.030869,25.209673 91.998779,24.425402 
	C91.876633,24.125343 92.004852,23.990198 92.067749,23.921505 
z"/>
<path fill="#2A3E3D" opacity="1.000000" stroke="none" 
	d="
M134.922028,54.099106 
	C134.069916,53.857807 133.291611,53.533504 132.513290,53.209202 
	C132.638138,52.923607 132.762970,52.638012 132.887817,52.352417 
	C133.565628,52.667648 134.243423,52.982883 135.035370,53.576939 
	C135.149490,53.855759 134.995804,54.016102 134.922028,54.099106 
z"/>
<path fill="#2A3E3D" opacity="1.000000" stroke="none" 
	d="
M40.048458,90.043457 
	C39.780689,90.830925 39.512920,91.618401 39.245152,92.405869 
	C38.950603,92.279297 38.656052,92.152725 38.361504,92.026154 
	C38.696774,91.389023 39.032040,90.751900 39.683155,90.056366 
	C39.999001,89.997963 40.048458,90.043457 40.048458,90.043457 
z"/>
<path fill="#2A3E3D" opacity="1.000000" stroke="none" 
	d="
M130.189026,49.951935 
	C130.426193,50.351780 130.451767,50.764889 130.477341,51.177998 
	C130.198288,51.176506 129.919220,51.175014 129.640167,51.173523 
	C129.752579,50.770744 129.865005,50.367970 130.189026,49.951935 
z"/>
<path fill="#2A3E3D" opacity="1.000000" stroke="none" 
	d="
M141.043579,59.026337 
	C140.565155,58.560204 140.054260,58.077248 139.543365,57.594296 
	C139.759995,57.399696 139.976624,57.205093 140.193237,57.010490 
	C140.466324,57.510899 140.739426,58.011314 141.027267,58.793770 
	C141.042023,59.075813 141.011093,59.009514 141.043579,59.026337 
z"/>
<path fill="#2F4242" opacity="1.000000" stroke="none" 
	d="
M126.680336,57.248161 
	C126.716904,56.713024 126.917252,56.326500 127.117599,55.939976 
	C127.327072,56.128063 127.536537,56.316147 127.746010,56.504234 
	C127.445374,56.801750 127.144745,57.099266 126.680336,57.248161 
z"/>
<path fill="#2A3E3D" opacity="1.000000" stroke="none" 
	d="
M49.311394,52.845665 
	C49.549442,52.450665 49.859806,52.262669 50.170174,52.074677 
	C50.275829,52.356346 50.381485,52.638012 50.487141,52.919682 
	C50.119328,52.964012 49.751518,53.008343 49.311394,52.845665 
z"/>
<path fill="#2A3E3D" opacity="1.000000" stroke="none" 
	d="
M99.681686,30.245281 
	C99.717445,29.714502 99.915802,29.331264 100.114151,28.948027 
	C100.322701,29.134735 100.531258,29.321442 100.739815,29.508146 
	C100.441307,29.803038 100.142799,30.097931 99.681686,30.245281 
z"/>
<path fill="#2A3E3D" opacity="1.000000" stroke="none" 
	d="
M110.442429,37.220993 
	C110.021301,37.081795 109.765022,36.798779 109.508743,36.515762 
	C109.743515,36.325523 109.978294,36.135284 110.213074,35.945045 
	C110.344475,36.322422 110.475876,36.699799 110.442429,37.220993 
z"/>
<path fill="#2A3E3D" opacity="1.000000" stroke="none" 
	d="
M121.043564,45.026329 
	C120.565140,44.560188 120.054253,44.077236 119.543365,43.594284 
	C119.759995,43.399685 119.976624,43.205086 120.193253,43.010487 
	C120.466339,43.510891 120.739426,44.011299 121.027260,44.793747 
	C121.042015,45.075787 121.011093,45.009510 121.043564,45.026329 
z"/>
<path fill="#2A3E3D" opacity="1.000000" stroke="none" 
	d="
M92.970474,33.504967 
	C92.254448,33.709629 91.495087,33.697365 90.357178,33.642990 
	C90.961472,33.496605 91.944305,33.392323 92.970474,33.504967 
z"/>
<path fill="#2A3E3D" opacity="1.000000" stroke="none" 
	d="
M59.937954,44.879139 
	C60.235851,45.287514 60.342884,45.653774 60.449921,46.020035 
	C60.198296,45.987858 59.742599,45.991108 59.729820,45.917473 
	C59.669304,45.568829 59.729744,45.199184 59.937954,44.879139 
z"/>
<path fill="#2A3E3D" opacity="1.000000" stroke="none" 
	d="
M69.605484,37.956249 
	C70.033211,38.124653 70.306068,38.409721 70.578926,38.694794 
	C70.388596,38.835194 70.198265,38.975597 70.007935,39.115997 
	C69.822159,38.768303 69.636391,38.420609 69.605484,37.956249 
z"/>
<path fill="#2A3E3D" opacity="1.000000" stroke="none" 
	d="
M40.021019,88.258316 
	C40.576881,87.981918 41.122246,88.044464 41.918427,88.220367 
	C41.683060,88.822929 41.196873,89.312134 40.379570,89.922401 
	C40.048458,90.043457 39.999001,89.997963 39.974113,89.974159 
	C39.969654,89.499321 39.990089,89.048286 40.021019,88.258316 
z"/>
<path fill="#2A3E3D" opacity="1.000000" stroke="none" 
	d="
M65.079651,42.072731 
	C64.756668,42.559124 64.357162,42.970325 63.957661,43.381531 
	C64.101578,42.926937 64.245483,42.472340 64.620880,41.931297 
	C64.852364,41.844852 65.003120,41.997543 65.079651,42.072731 
z"/>
<path fill="#2A3E3D" opacity="1.000000" stroke="none" 
	d="
M79.604576,30.956171 
	C80.031166,31.124210 80.303261,31.408731 80.575363,31.693253 
	C80.385513,31.833216 80.195671,31.973177 80.005829,32.113136 
	C79.820580,31.766308 79.635330,31.419481 79.604576,30.956171 
z"/>
<path fill="#2A3E3D" opacity="1.000000" stroke="none" 
	d="
M39.039005,74.551338 
	C39.155605,74.846497 39.088470,75.137871 39.021339,75.429237 
	C38.965984,75.135338 38.910629,74.841446 39.039005,74.551338 
z"/>
<path fill="#2F4242" opacity="1.000000" stroke="none" 
	d="
M129.918900,58.940430 
	C130.113235,58.656456 130.307571,58.372478 130.501907,58.088501 
	C130.448349,58.331383 130.394806,58.574265 130.164856,58.909180 
	C129.988449,59.001209 129.918900,58.940426 129.918900,58.940430 
z"/>
<path fill="#C3C8C8" opacity="1.000000" stroke="none" 
	d="
M35.566170,61.721870 
	C35.855164,61.823452 35.917274,62.002491 36.010990,62.464031 
	C35.610916,62.673374 35.179241,62.600216 34.747566,62.527061 
	C34.944805,62.284481 35.142048,62.041904 35.566170,61.721870 
z"/>
<path fill="#E1E2E2" opacity="1.000000" stroke="none" 
	d="
M30.725632,98.975121 
	C30.708328,99.419212 30.441000,99.648026 29.943134,100.006912 
	C29.372675,100.130936 29.097462,99.994423 28.981537,99.193771 
	C29.185612,98.445992 29.295105,98.231895 29.404598,98.017792 
	C29.761600,98.265144 30.118603,98.512497 30.725632,98.975121 
z"/>
<path fill="#2F4242" opacity="1.000000" stroke="none" 
	d="
M130.020050,59.034878 
	C130.051666,59.068546 129.794510,59.322750 129.794510,59.322750 
	C129.794510,59.322750 129.770737,59.058533 129.844818,58.999481 
	C129.918900,58.940426 129.988449,59.001209 130.020050,59.034878 
z"/>
<path fill="#DCDFDE" opacity="1.000000" stroke="none" 
	d="
M22.688112,88.141449 
	C22.675503,88.093155 22.897888,88.173096 22.897888,88.173096 
	C22.897888,88.173096 22.735468,88.019226 22.695837,88.149162 
	C22.656206,88.279099 22.700722,88.189743 22.688112,88.141449 
z"/>
<path fill="#E9EAEA" opacity="1.000000" stroke="none" 
	d="
M113.723526,47.048813 
	C113.898773,47.473244 113.704247,47.718449 112.976463,47.895428 
	C112.596504,47.948803 112.383049,47.685131 112.383049,47.685131 
	C112.496330,47.559803 112.609612,47.434475 112.892868,47.121216 
	C113.062843,46.933281 113.507072,46.991196 113.723526,47.048813 
z"/>
<path fill="#2F4242" opacity="1.000000" stroke="none" 
	d="
M55.488640,24.071877 
	C55.460995,24.037128 55.481884,23.653204 55.481884,23.653204 
	C55.481884,23.653204 55.753605,23.824442 55.678898,23.959246 
	C55.604191,24.094049 55.516281,24.106625 55.488640,24.071877 
z"/>
<path fill="#E1E2E2" opacity="1.000000" stroke="none" 
	d="
M28.896366,98.972832 
	C28.395901,98.801193 28.075188,98.316818 27.754475,97.832443 
	C28.129562,97.666992 28.504650,97.501541 29.142170,97.676941 
	C29.295105,98.231895 29.185612,98.445992 28.896366,98.972832 
z"/>
<path fill="#E9EAEA" opacity="1.000000" stroke="none" 
	d="
M62.668255,51.130371 
	C63.102398,51.156342 63.278065,51.361519 63.429897,51.583031 
	C63.437283,51.593807 63.235577,51.747902 62.925323,51.853077 
	C62.614624,51.684875 62.509834,51.498848 62.668255,51.130371 
z"/>
<path fill="#F2F2F2" opacity="1.000000" stroke="none" 
	d="
M90.504768,126.042229 
	C85.402351,126.026115 80.299942,126.010010 74.718262,125.549377 
	C74.238998,111.536469 74.238998,97.968079 74.238998,84.152489 
	C79.796249,84.152489 84.866196,84.152489 90.504768,84.152489 
	C90.504768,98.232750 90.504768,112.137489 90.504768,126.042229 
z"/>
<path fill="#F2F2F2" opacity="1.000000" stroke="none" 
	d="
M108.018135,125.995247 
	C103.038605,125.992691 98.059067,125.990128 92.649467,125.541092 
	C92.219398,111.507332 92.219398,97.920059 92.219398,84.263603 
	C97.821968,84.263603 102.858185,84.263603 108.018135,84.263603 
	C108.018135,98.416565 108.018135,112.205910 108.018135,125.995247 
z"/>
<path fill="#314544" opacity="1.000000" stroke="none" 
	d="
M128.596970,77.495529 
	C102.033630,77.495575 75.924400,77.495575 49.516075,77.495575 
	C49.516075,75.254219 49.516075,73.490532 49.516075,71.363007 
	C77.246407,71.363007 105.114548,71.363007 133.273529,71.363007 
	C133.273529,73.131462 133.273529,74.890305 133.273529,77.176819 
	C131.883926,77.281693 130.467499,77.388588 128.596970,77.495529 
z"/>
<path fill="#233736" opacity="1.000000" stroke="none" 
	d="
M89.999954,69.114288 
	C76.243668,69.114288 62.987385,69.114288 49.501457,69.114288 
	C49.501457,66.983398 49.501457,65.371712 49.501457,63.321785 
	C77.202156,63.321785 105.008911,63.321785 133.237747,63.321785 
	C133.317993,64.972137 133.402756,66.715279 133.519409,69.114288 
	C118.992897,69.114288 104.746422,69.114288 89.999954,69.114288 
z"/>
<path fill="#334645" opacity="1.000000" stroke="none" 
	d="
M98.997971,128.163498 
	C104.789642,128.163498 110.081749,128.163498 115.806427,128.163498 
	C115.950974,129.965759 116.075417,131.517334 116.231796,133.467010 
	C99.728058,133.467010 83.570068,133.467010 66.880295,133.467010 
	C66.763565,132.032776 66.638832,130.500214 66.448639,128.163498 
	C77.426102,128.163498 87.962250,128.163498 98.997971,128.163498 
z"/>
<path fill="#354847" opacity="1.000000" stroke="none" 
	d="
M108.458008,126.081375 
	C108.018135,112.205910 108.018135,98.416565 108.018135,84.263603 
	C102.858185,84.263603 97.821968,84.263603 92.219398,84.263603 
	C92.219398,97.920059 92.219398,111.507332 92.193611,125.564949 
	C91.890785,126.055641 91.613747,126.075996 90.920738,126.069290 
	C90.504768,112.137489 90.504768,98.232750 90.504768,84.152489 
	C84.866196,84.152489 79.796249,84.152489 74.238998,84.152489 
	C74.238998,97.968079 74.238998,111.536469 74.271423,125.575447 
	C73.590561,125.305817 72.261978,124.571159 72.255211,123.824524 
	C72.130577,110.074799 72.163994,96.323647 72.163994,82.284607 
	C84.799301,82.284607 97.033669,82.284607 110.007149,82.284607 
	C110.007149,84.876144 110.007149,87.621773 110.007149,90.367401 
	C110.007141,100.841187 110.050095,111.315361 109.957832,121.788330 
	C109.944954,123.251053 109.267624,124.707924 108.458008,126.081375 
z"/>
<path fill="#334645" opacity="1.000000" stroke="none" 
	d="
M129.498642,112.496239 
	C135.444305,112.167542 133.147202,115.927719 133.485703,118.755157 
	C126.207916,118.755157 119.314453,118.755157 112.127357,118.755157 
	C112.127357,116.798798 112.127357,114.907730 112.127357,112.495667 
	C117.835571,112.495667 123.443924,112.495667 129.498642,112.496239 
z"/>
<path fill="#334645" opacity="1.000000" stroke="none" 
	d="
M118.177681,102.511169 
	C115.900826,102.511116 114.098053,102.511116 112.070648,102.511116 
	C112.070648,100.116692 112.070648,98.207336 112.070648,96.066711 
	C119.199722,96.066711 126.107742,96.066711 133.279510,96.066711 
	C133.279510,98.191399 133.279510,100.082199 133.279510,102.511223 
	C128.219727,102.511223 123.435745,102.511223 118.177681,102.511169 
z"/>
<path fill="#334645" opacity="1.000000" stroke="none" 
	d="
M112.416763,93.679199 
	C112.017738,91.635521 112.017738,89.839355 112.017738,87.770020 
	C119.110611,87.770020 125.992584,87.770020 133.223999,87.770020 
	C133.223999,89.802307 133.223999,91.670685 133.223999,93.926704 
	C126.319061,93.926704 119.567421,93.926704 112.416763,93.679199 
z"/>
<path fill="#354847" opacity="1.000000" stroke="none" 
	d="
M56.200642,112.484413 
	C60.974731,112.484459 65.280273,112.484459 70.223335,112.484459 
	C70.331024,114.543381 70.429054,116.417679 70.546326,118.659729 
	C63.386612,118.659729 56.534290,118.659729 49.438278,118.659729 
	C49.438278,116.789078 49.438278,115.031410 49.438278,112.484367 
	C51.572784,112.484367 53.652439,112.484367 56.200642,112.484413 
z"/>
<path fill="#354847" opacity="1.000000" stroke="none" 
	d="
M65.601410,102.522018 
	C60.054623,102.522110 54.960484,102.522110 49.537693,102.522110 
	C49.537693,100.205894 49.537693,98.335480 49.537693,96.142906 
	C56.268070,96.142906 62.975620,96.142906 70.099625,96.142906 
	C70.099625,97.923981 70.099625,99.796318 70.099625,102.206871 
	C68.861176,102.303314 67.457619,102.412621 65.601410,102.522018 
z"/>
<path fill="#354847" opacity="1.000000" stroke="none" 
	d="
M70.318207,88.626343 
	C70.446571,90.489632 70.446571,91.956329 70.446571,93.713882 
	C63.404331,93.713882 56.665321,93.713882 49.561615,93.713882 
	C49.561615,91.871536 49.561615,89.996475 49.561615,87.218842 
	C56.473740,87.557579 63.331791,87.893669 70.318207,88.626343 
z"/>
<path fill="#233736" opacity="1.000000" stroke="none" 
	d="
M70.553398,80.521950 
	C70.404404,82.152748 70.255402,83.783539 70.090576,85.587608 
	C63.241276,85.587608 56.632641,85.587608 49.643478,85.587608 
	C49.643478,83.593475 49.643478,81.713318 49.643478,79.228371 
	C56.094597,79.228371 62.537491,79.228371 69.559402,79.593262 
	C70.276733,80.146072 70.415062,80.334007 70.553398,80.521950 
z"/>
<path fill="#233736" opacity="1.000000" stroke="none" 
	d="
M112.101517,79.298996 
	C119.050705,79.298996 125.999886,79.298996 133.212769,79.298996 
	C133.212769,81.494164 133.212769,83.260025 133.212769,85.406502 
	C126.224091,85.406502 119.341064,85.406502 112.142853,85.406502 
	C112.038399,84.035751 111.928261,82.590431 111.917023,80.493027 
	C112.044449,79.660286 112.072983,79.479637 112.101517,79.298996 
z"/>
<path fill="#2A3E3D" opacity="1.000000" stroke="none" 
	d="
M133.352554,104.987556 
	C133.468170,107.069588 133.468170,108.677689 133.468170,110.546158 
	C126.078209,110.546158 119.213936,110.546158 112.106522,110.546158 
	C112.106522,108.391769 112.106522,106.473022 112.106522,104.513626 
	C119.169838,104.513626 126.203384,104.513626 133.352554,104.987556 
z"/>
<path fill="#2F4242" opacity="1.000000" stroke="none" 
	d="
M49.222076,106.987961 
	C49.928860,105.704102 50.612453,104.154640 51.343163,104.132095 
	C57.616905,103.938507 63.899166,104.020958 70.181732,104.020958 
	C70.181732,106.444168 70.181732,108.374557 70.181732,110.811127 
	C63.797764,110.811127 57.682877,110.939865 51.586639,110.661041 
	C50.750496,110.622787 50.007076,108.557205 49.222076,106.987961 
z"/>
<path fill="#354847" opacity="1.000000" stroke="none" 
	d="
M112.060921,125.564606 
	C111.890274,123.860611 111.890274,122.582611 111.890274,121.066910 
	C119.111595,121.066910 125.987938,121.066910 133.322250,121.066910 
	C133.403763,122.664406 133.483200,124.221291 133.573486,125.990608 
	C126.226471,125.990608 119.229019,125.990608 112.060921,125.564606 
z"/>
<path fill="#354847" opacity="1.000000" stroke="none" 
	d="
M61.930130,120.826157 
	C64.876289,120.826157 67.338425,120.826157 70.239616,120.826157 
	C70.334732,122.638977 70.416641,124.200058 70.518944,126.149734 
	C63.359562,126.149734 56.542225,126.149734 49.462990,126.149734 
	C49.462990,124.431442 49.462990,122.883484 49.462990,120.826157 
	C53.594669,120.826157 57.520386,120.826157 61.930130,120.826157 
z"/>
<path fill="#5B6A69" opacity="1.000000" stroke="none" 
	d="
M111.636856,79.193306 
	C112.072983,79.479637 112.044449,79.660286 111.872124,80.074554 
	C98.283051,80.308762 84.837761,80.309341 70.972939,80.415939 
	C70.415062,80.334007 70.276733,80.146072 70.020493,79.628571 
	C83.659119,79.228539 97.415665,79.158073 111.636856,79.193306 
z"/>
<path fill="#314544" opacity="1.000000" stroke="none" 
	d="
M138.210480,88.163658 
	C139.660782,89.511833 140.726166,90.953400 141.791565,92.394958 
	C140.226303,92.784782 138.661041,93.174606 137.095779,93.564438 
	C137.339050,91.795311 137.582321,90.026184 138.210480,88.163658 
z"/>
<path fill="#314544" opacity="1.000000" stroke="none" 
	d="
M141.912781,99.895584 
	C140.075790,100.532280 138.300766,100.775215 136.525757,101.018150 
	C136.913879,99.482582 137.301987,97.947021 137.690109,96.411453 
	C139.118332,97.441574 140.546555,98.471703 141.912781,99.895584 
z"/>
<path fill="#354847" opacity="1.000000" stroke="none" 
	d="
M40.946186,100.505890 
	C41.635002,98.820396 42.467209,97.468651 43.299416,96.116898 
	C44.357635,96.770378 45.781368,97.203156 46.353268,98.150284 
	C46.776833,98.851761 46.188831,101.112434 45.885628,101.145218 
	C44.316315,101.314949 42.693645,100.991295 40.946186,100.505890 
z"/>
<path fill="#2F4242" opacity="1.000000" stroke="none" 
	d="
M136.786652,85.206673 
	C135.461151,82.533302 135.796249,80.384521 138.634308,80.222557 
	C139.689621,80.162338 141.864624,82.324394 141.799133,83.364136 
	C141.620224,86.205276 139.446945,86.493065 136.786652,85.206673 
z"/>
<path fill="#2F4242" opacity="1.000000" stroke="none" 
	d="
M138.176666,77.924072 
	C137.343445,76.341873 136.675842,74.824432 136.649429,73.295898 
	C136.643250,72.938354 138.887772,72.114151 139.951584,72.306755 
	C140.744522,72.450310 142.035355,74.363136 141.839294,74.664238 
	C141.009308,75.938904 139.706284,76.905556 138.176666,77.924072 
z"/>
<path fill="#2F4242" opacity="1.000000" stroke="none" 
	d="
M136.316559,65.423065 
	C138.278229,65.328552 140.051376,65.582680 141.824539,65.836800 
	C141.025513,67.208252 140.428131,69.547836 139.388535,69.764389 
	C136.592804,70.346741 135.679459,68.387207 136.316559,65.423065 
z"/>
<path fill="#354847" opacity="1.000000" stroke="none" 
	d="
M42.943161,126.100174 
	C42.068829,124.592110 41.600971,123.126297 41.133118,121.660492 
	C42.291466,121.310387 43.621471,120.443787 44.559818,120.755653 
	C45.495388,121.066582 46.838493,123.075325 46.604759,123.437645 
	C45.875137,124.568542 44.484203,125.272789 42.943161,126.100174 
z"/>
<path fill="#354847" opacity="1.000000" stroke="none" 
	d="
M42.931759,110.066238 
	C42.071999,108.522049 41.388451,107.030769 41.334896,105.517204 
	C41.322445,105.165306 43.653553,104.178955 44.546677,104.496399 
	C45.505409,104.837158 46.859386,106.824432 46.599110,107.293930 
	C45.945324,108.473244 44.478340,109.201744 42.931759,110.066238 
z"/>
<path fill="#314544" opacity="1.000000" stroke="none" 
	d="
M142.025940,112.956329 
	C141.970123,113.238579 141.790588,113.573662 141.844376,113.865776 
	C142.384537,116.798790 141.308502,118.560127 138.238892,117.916679 
	C137.314285,117.722862 135.949371,115.737312 136.132797,114.851311 
	C136.784500,111.703354 138.951584,111.720787 141.715240,113.067841 
	C142.076492,112.958786 142.010529,112.989235 142.025940,112.956329 
z"/>
<path fill="#2F4242" opacity="1.000000" stroke="none" 
	d="
M141.173981,109.327637 
	C139.257385,108.964066 137.616074,108.301651 135.974792,107.639252 
	C137.058136,106.495110 138.221313,104.329063 139.209274,104.406219 
	C141.759247,104.605377 142.699219,106.502800 141.173981,109.327637 
z"/>
<path fill="#354847" opacity="1.000000" stroke="none" 
	d="
M42.144058,117.889008 
	C39.881828,115.418854 40.115913,113.293663 43.029984,112.485283 
	C43.975037,112.223129 46.361595,113.790802 46.548721,114.805511 
	C47.072620,117.646385 45.059097,118.407867 42.144058,117.889008 
z"/>
<path fill="#2F4242" opacity="1.000000" stroke="none" 
	d="
M137.408813,125.870552 
	C135.257294,123.584122 135.313934,121.544754 138.133667,120.795662 
	C139.150848,120.525436 141.543945,121.869431 141.767853,122.834427 
	C142.491516,125.953094 140.223755,126.308647 137.408813,125.870552 
z"/>
<path fill="#233736" opacity="1.000000" stroke="none" 
	d="
M24.187340,98.220413 
	C23.946503,97.876404 23.967722,97.709320 24.059631,97.299683 
	C24.236677,97.503860 24.343035,97.950592 24.187340,98.220413 
z"/>
<path fill="#243938" opacity="1.000000" stroke="none" 
	d="
M212.264145,30.532463 
	C217.388962,27.847445 224.862228,28.756840 228.203201,32.189320 
	C231.603683,35.682926 232.112320,40.107807 230.347351,44.264336 
	C226.995697,52.157425 219.360565,50.958881 212.102386,51.998566 
	C212.102386,44.797497 212.102386,37.880783 212.264145,30.532463 
z"/>
<path fill="#2A3E3D" opacity="1.000000" stroke="none" 
	d="
M361.850708,65.308998 
	C365.519562,62.625626 368.990570,60.283772 373.738525,57.080376 
	C373.738525,62.834549 374.199799,66.944641 373.613922,70.899620 
	C372.977661,75.194534 368.898560,76.346458 365.577606,75.675285 
	C363.647125,75.285118 361.997253,72.123146 360.846039,69.886719 
	C360.327759,68.879883 361.336823,67.086830 361.850708,65.308998 
z"/>
<path fill="#334645" opacity="1.000000" stroke="none" 
	d="
M472.856201,47.186951 
	C473.943817,49.536461 474.765900,51.595943 475.833435,54.270302 
	C469.811859,54.270302 464.650635,54.270302 459.483276,54.270302 
	C460.078552,46.106552 465.223999,43.200844 472.856201,47.186951 
z"/>
<path fill="#334645" opacity="1.000000" stroke="none" 
	d="
M259.212341,54.425018 
	C259.084381,48.453339 261.899078,45.240013 266.809326,45.185028 
	C271.557373,45.131859 273.731018,47.726322 274.304138,54.580471 
	C269.372070,54.580471 264.472504,54.580471 259.212341,54.425018 
z"/>
<path fill="#243938" opacity="1.000000" stroke="none" 
	d="
M112.034622,47.488441 
	C112.383049,47.685131 112.596504,47.948803 112.756256,48.005798 
	C114.243195,49.373100 115.570381,50.683399 116.763824,52.293007 
	C110.045097,52.408409 103.460114,52.224503 96.452850,52.066303 
	C92.371140,47.406910 90.475868,47.285427 86.747772,51.759735 
	C85.828186,52.316208 85.394287,52.641071 84.960388,52.965935 
	C84.960388,52.965939 85.013199,53.004570 85.031769,52.977905 
	C78.790588,52.799297 72.530838,52.647362 65.829819,52.537334 
	C67.217323,50.975952 69.046104,49.372662 71.034927,47.479382 
	C84.692047,47.223515 98.189117,47.257633 112.034622,47.488441 
z"/>
<path fill="#E9EAEA" opacity="1.000000" stroke="none" 
	d="
M85.138596,53.339417 
	C85.394287,52.641071 85.828186,52.316208 86.609772,52.050568 
	C86.410568,52.644161 85.863686,53.178528 85.138596,53.339417 
z"/>
<path fill="#334645" opacity="1.000000" stroke="none" 
	d="
M347.957031,131.915359 
	C347.368927,133.102051 346.902740,134.388794 346.186615,134.547394 
	C344.517731,134.917099 342.704102,134.914719 341.005615,134.670288 
	C340.582184,134.609360 339.983063,132.378403 340.126129,132.296188 
	C341.575134,131.463730 343.114532,130.575241 344.726624,130.318878 
	C345.718353,130.161194 346.880035,131.071884 347.957031,131.915359 
z"/>
<path fill="#243938" opacity="1.000000" stroke="none" 
	d="
M101.575943,40.097603 
	C102.343575,40.701450 102.805687,41.269222 103.550995,41.896751 
	C104.223633,42.444427 104.613068,42.932350 105.362305,43.871059 
	C95.982986,43.871059 86.802094,43.871059 77.474258,43.481339 
	C79.776604,41.586651 82.225876,40.081684 84.884613,38.314404 
	C89.481339,38.311974 93.868591,38.571854 98.654915,38.991135 
	C99.792793,39.454193 100.531609,39.757858 101.575943,40.097603 
z"/>
<path fill="#2A3E3D" opacity="1.000000" stroke="none" 
	d="
M324.929199,134.845261 
	C322.203247,132.490021 321.114197,129.914322 322.902527,126.380142 
	C325.540131,125.752563 328.440674,124.639435 330.468201,125.525040 
	C331.729431,126.075928 332.431549,129.801941 332.030914,131.836334 
	C331.361023,135.237839 328.292969,135.433060 324.929199,134.845261 
z"/>
</svg>