<?xml version="1.0" standalone="no"?>
<!DOCTYPE svg PUBLIC "-//W3C//DTD SVG 20010904//EN"
 "http://www.w3.org/TR/2001/REC-SVG-20010904/DTD/svg10.dtd">
<svg version="1.0" xmlns="http://www.w3.org/2000/svg"
 width="80.000000pt" height="22.000000pt" viewBox="0 0 80.000000 22.000000"
 preserveAspectRatio="xMidYMid meet">

<g transform="translate(0.000000,22.000000) scale(0.100000,-0.100000)"
fill="#000000" stroke="none">
<path d="M0 110 l0 -109 400 -1 400 0 0 110 0 110 -400 0 -400 0 0 -110z m340
50 c0 -22 15 -27 26 -9 3 6 0 15 -7 20 -11 7 -10 9 4 9 10 0 17 -8 17 -20 0
-11 -5 -20 -12 -20 -6 0 -3 -9 7 -20 22 -24 9 -27 -17 -3 -17 15 -18 15 -18 0
0 -10 -4 -17 -10 -17 -5 0 -10 18 -10 40 0 22 5 40 10 40 6 0 10 -9 10 -20z
m101 11 c-9 -6 -10 -11 -2 -15 18 -12 12 -26 -10 -26 -18 0 -19 -2 -9 -15 7
-9 11 -18 8 -20 -3 -3 -11 1 -18 10 -15 17 -5 50 11 39 8 -4 9 -3 5 4 -9 15 1
32 17 32 8 0 8 -3 -2 -9z m-291 -6 c0 -7 -30 -13 -34 -7 -3 4 4 9 15 9 10 1
19 0 19 -2z m358 -46 c-3 -20 -5 -19 -9 9 -3 20 -2 29 4 23 5 -5 7 -19 5 -32z
m38 6 c0 -18 -3 -32 -8 -29 -10 6 -11 64 0 64 4 0 7 -16 8 -35z m62 -4 c2 -19
-1 -31 -6 -27 -5 3 -8 17 -6 32 2 19 -1 24 -12 20 -9 -3 -12 -1 -9 5 12 19 30
3 33 -30z m72 3 c0 -34 -17 -30 -22 5 -3 21 -1 28 9 24 7 -3 13 -16 13 -29z
m28 -5 c-3 -20 -5 -19 -9 9 -3 20 -2 29 4 23 5 -5 7 -19 5 -32z m60 23 c2 -7
-6 -12 -19 -12 -18 0 -20 -3 -11 -12 17 -17 15 -33 -3 -18 -18 15 -19 32 -3
48 14 14 30 11 36 -6z m-291 -29 c-3 -10 -5 -4 -5 12 0 17 2 24 5 18 2 -7 2
-21 0 -30z m160 0 c-3 -10 -5 -4 -5 12 0 17 2 24 5 18 2 -7 2 -21 0 -30z
m-436 18 c24 -1 26 -4 28 -56 2 -55 2 -56 -25 -49 -15 4 -25 3 -21 -2 3 -5
-14 -9 -38 -9 -24 0 -41 4 -38 9 4 5 -5 6 -20 2 -25 -6 -25 -5 -24 46 2 51 3
53 32 58 17 3 41 4 55 3 14 -1 37 -2 51 -2z m379 -23 c0 -16 -3 -19 -11 -11
-6 6 -8 16 -5 22 11 17 16 13 16 -11z m-320 -39 c0 -11 -4 -18 -10 -14 -5 3
-7 12 -3 20 7 21 13 19 13 -6z m374 -47 c3 -5 -1 -9 -9 -9 -8 0 -12 4 -9 9 3
4 7 8 9 8 2 0 6 -4 9 -8z"/>
<path d="M80 80 c0 -29 4 -40 15 -40 10 0 15 10 15 30 0 28 3 30 35 30 32 0
35 -2 35 -30 0 -20 5 -30 15 -30 11 0 15 11 15 40 l0 40 -65 0 -65 0 0 -40z"/>
</g>
</svg>
